<svg width="251" height="251" viewBox="0 0 251 251" fill="none" xmlns="http://www.w3.org/2000/svg">
<path d="M25.1 127.099C25.1 153.727 35.6778 179.264 54.5065 198.092C73.3351 216.921 98.8723 227.499 125.5 227.499C152.128 227.499 177.665 216.921 196.494 198.092C215.322 179.264 225.9 153.727 225.9 127.099C225.9 100.471 215.322 74.934 196.494 56.1053C177.665 37.2767 152.128 26.6989 125.5 26.6989C98.8723 26.6989 73.3351 37.2767 54.5065 56.1053C35.6778 74.934 25.1 100.471 25.1 127.099Z" fill="#D9EDFF"/>
<path d="M94.7249 210.78C94.7249 211.778 98.4271 212.736 105.017 213.442C111.607 214.148 120.545 214.545 129.865 214.545C139.185 214.545 148.123 214.148 154.713 213.442C161.303 212.736 165.005 211.778 165.005 210.78C165.005 209.781 161.303 208.823 154.713 208.117C148.123 207.411 139.185 207.015 129.865 207.015C120.545 207.015 111.607 207.411 105.017 208.117C98.4271 208.823 94.7249 209.781 94.7249 210.78Z" fill="#B0D9FF"/>
<path d="M85.9876 183.501H92.7244C93.6178 183.501 94.4746 183.146 95.1063 182.514C95.738 181.883 96.0928 181.026 96.0928 180.133V141.396C96.0928 140.502 95.738 139.646 95.1063 139.014C94.4746 138.382 93.6178 138.027 92.7244 138.027H85.9876V183.501Z" fill="white" stroke="#020064" stroke-width="0.24" stroke-linecap="round" stroke-linejoin="round"/>
<path d="M134.832 132.975C136.087 120.39 137.756 93.3945 127.252 93.3945C125.242 93.3945 123.315 94.1929 121.894 95.614C120.473 97.0351 119.674 98.9625 119.674 100.972V103.5C119.674 122.026 111.642 141.401 96.0803 141.401V180.138H98.0682C107.782 180.138 112.375 186.874 129.78 186.874H159.254C161.041 186.874 162.755 186.165 164.018 184.901C165.282 183.638 165.991 181.924 165.991 180.138C165.991 178.351 165.282 176.637 164.018 175.374C162.755 174.111 161.041 173.401 159.254 173.401H162.623C164.41 173.401 166.123 172.691 167.387 171.428C168.65 170.164 169.36 168.451 169.36 166.664C169.36 164.877 168.65 163.164 167.387 161.9C166.123 160.637 164.41 159.927 162.623 159.927H165.991C167.778 159.927 169.492 159.217 170.755 157.954C172.018 156.691 172.728 154.977 172.728 153.19C172.728 151.404 172.018 149.69 170.755 148.427C169.492 147.163 167.778 146.453 165.991 146.453H169.36C171.146 146.453 172.86 145.744 174.123 144.48C175.387 143.217 176.097 141.503 176.097 139.717C176.097 137.93 175.387 136.216 174.123 134.953C172.86 133.69 171.146 132.98 169.36 132.98L134.832 132.975Z" fill="white"/>
<path d="M128.095 132.975H134.832" stroke="#020064" stroke-width="0.24" stroke-linecap="round" stroke-linejoin="round"/>
<path d="M159.254 173.396H155.886" stroke="#020064" stroke-width="0.24" stroke-linecap="round" stroke-linejoin="round"/>
<path d="M162.623 159.922H159.254" stroke="#020064" stroke-width="0.24" stroke-linecap="round" stroke-linejoin="round"/>
<path d="M165.991 146.448H162.623" stroke="#020064" stroke-width="0.24" stroke-linecap="round" stroke-linejoin="round"/>
<path d="M134.832 132.975C136.087 120.39 137.756 93.3945 127.252 93.3945C125.242 93.3945 123.315 94.1929 121.894 95.614C120.473 97.0351 119.674 98.9625 119.674 100.972V103.5C119.674 122.026 111.642 141.401 96.0803 141.401V180.138H98.0682C107.782 180.138 112.375 186.874 129.78 186.874H159.254C161.041 186.874 162.755 186.165 164.018 184.901C165.282 183.638 165.991 181.924 165.991 180.138C165.991 178.351 165.282 176.637 164.018 175.374C162.755 174.111 161.041 173.401 159.254 173.401H162.623C164.41 173.401 166.123 172.691 167.387 171.428C168.65 170.164 169.36 168.451 169.36 166.664C169.36 164.877 168.65 163.164 167.387 161.9C166.123 160.637 164.41 159.927 162.623 159.927H165.991C167.778 159.927 169.492 159.217 170.755 157.954C172.018 156.691 172.728 154.977 172.728 153.19C172.728 151.404 172.018 149.69 170.755 148.427C169.492 147.163 167.778 146.453 165.991 146.453H169.36C171.146 146.453 172.86 145.744 174.123 144.48C175.387 143.217 176.097 141.503 176.097 139.717C176.097 137.93 175.387 136.216 174.123 134.953C172.86 133.69 171.146 132.98 169.36 132.98L134.832 132.975Z" stroke="#020064" stroke-width="0.24" stroke-linecap="round" stroke-linejoin="round"/>
<path d="M62.4086 134.659H85.9876V186.872H62.4086V134.659Z" fill="#B0D9FF"/>
<path d="M62.4086 134.659H85.9876V186.872H62.4086V134.659Z" stroke="#020064" stroke-width="0.24" stroke-linecap="round" stroke-linejoin="round"/>
<path d="M128.419 25.1L133.575 35.5441C133.778 35.9594 134.08 36.3186 134.454 36.5903C134.828 36.862 135.263 37.0379 135.721 37.1028L147.249 38.7794C147.775 38.8559 148.269 39.078 148.676 39.4206C149.082 39.7633 149.385 40.2128 149.549 40.7184C149.713 41.224 149.733 41.7654 149.605 42.2815C149.478 42.7976 149.209 43.2678 148.828 43.6388L140.485 51.7712C140.157 52.093 139.911 52.4892 139.768 52.9261C139.626 53.363 139.591 53.8279 139.666 54.2812L141.634 65.767C141.727 66.2919 141.671 66.8323 141.472 67.3267C141.272 67.8211 140.938 68.2497 140.508 68.5636C140.077 68.8775 139.567 69.0641 139.035 69.1022C138.503 69.1403 137.971 69.0283 137.5 68.779L127.189 63.3523C126.78 63.1371 126.325 63.0247 125.863 63.0247C125.4 63.0247 124.945 63.1371 124.536 63.3523L114.225 68.7739C113.754 69.0232 113.222 69.1352 112.691 69.0972C112.159 69.0591 111.649 68.8725 111.218 68.5586C110.787 68.2447 110.453 67.8161 110.254 67.3217C110.055 66.8273 109.998 66.2868 110.091 65.7619L112.059 54.2762C112.135 53.8228 112.1 53.3578 111.958 52.9208C111.815 52.4837 111.569 52.0876 111.241 51.7662L102.91 43.6288C102.529 43.2577 102.26 42.7876 102.133 42.2715C102.005 41.7554 102.025 41.2139 102.189 40.7084C102.353 40.2028 102.656 39.7533 103.062 39.4106C103.469 39.068 103.963 38.8458 104.489 38.7694L116.017 37.0927C116.475 37.0279 116.91 36.8519 117.284 36.5802C117.658 36.3085 117.96 35.9493 118.163 35.534L123.309 25.1C123.544 24.623 123.908 24.2214 124.359 23.9405C124.811 23.6597 125.332 23.5109 125.864 23.5109C126.396 23.5109 126.917 23.6597 127.368 23.9405C127.82 24.2214 128.184 24.623 128.419 25.1Z" fill="#B0D9FF"/>
<path d="M128.419 25.1L133.575 35.5441C133.778 35.9594 134.08 36.3185 134.454 36.5903C134.828 36.862 135.263 37.0379 135.721 37.1028L147.249 38.7794C147.775 38.8559 148.269 39.078 148.676 39.4206C149.082 39.7633 149.385 40.2128 149.549 40.7184C149.713 41.224 149.733 41.7654 149.605 42.2815C149.478 42.7976 149.209 43.2678 148.828 43.6388L140.485 51.7712C140.157 52.093 139.911 52.4892 139.768 52.9261C139.626 53.363 139.591 53.8279 139.666 54.2812L141.634 65.767C141.727 66.2918 141.671 66.8323 141.472 67.3267C141.272 67.8211 140.938 68.2497 140.508 68.5636C140.077 68.8775 139.567 69.0641 139.035 69.1022C138.503 69.1403 137.971 69.0283 137.5 68.779L127.189 63.3523C126.78 63.1371 126.325 63.0247 125.863 63.0247C125.4 63.0247 124.945 63.1371 124.536 63.3523L114.225 68.7739C113.754 69.0232 113.222 69.1352 112.691 69.0972C112.159 69.0591 111.649 68.8725 111.218 68.5586C110.787 68.2447 110.453 67.8161 110.254 67.3217C110.055 66.8273 109.998 66.2868 110.091 65.7619L112.059 54.2762C112.135 53.8228 112.1 53.3578 111.958 52.9208C111.815 52.4837 111.569 52.0876 111.241 51.7662L102.91 43.6288C102.529 43.2577 102.26 42.7876 102.133 42.2715C102.005 41.7554 102.025 41.2139 102.189 40.7084C102.353 40.2028 102.656 39.7533 103.062 39.4106C103.469 39.068 103.963 38.8458 104.489 38.7694L116.017 37.0927C116.475 37.0279 116.91 36.8519 117.284 36.5802C117.658 36.3085 117.96 35.9493 118.163 35.534L123.309 25.1C123.544 24.623 123.908 24.2214 124.359 23.9405C124.811 23.6597 125.332 23.5109 125.864 23.5109C126.396 23.5109 126.917 23.6597 127.368 23.9405C127.82 24.2214 128.184 24.623 128.419 25.1Z" stroke="#020064" stroke-width="0.24" stroke-linecap="round" stroke-linejoin="round"/>
<path d="M68.9522 47.6322L77.0997 52.7651C77.4226 52.9694 77.7906 53.0917 78.1716 53.1215C78.5526 53.1512 78.9351 53.0875 79.2859 52.9358L88.1361 49.1331C88.54 48.9592 88.9845 48.9019 89.4193 48.9676C89.8541 49.0333 90.2618 49.2195 90.5963 49.5051C90.9307 49.7906 91.1784 50.1641 91.3115 50.5833C91.4445 51.0024 91.4575 51.4504 91.3489 51.8766L88.9845 61.2138C88.8902 61.5831 88.8866 61.9698 88.974 62.3409C89.0614 62.7119 89.2373 63.0563 89.4865 63.3448L95.8393 70.5861C96.1292 70.9168 96.3209 71.3219 96.3925 71.7558C96.4642 72.1897 96.4131 72.6349 96.2449 73.0413C96.0767 73.4476 95.7982 73.7987 95.4409 74.0551C95.0836 74.3114 94.6617 74.4626 94.2229 74.4917L84.6146 75.1267C84.2333 75.1522 83.864 75.2699 83.5382 75.4697C83.2125 75.6695 82.9402 75.9454 82.7447 76.2738L77.82 84.5568C77.5955 84.9349 77.2696 85.2425 76.8792 85.4449C76.4887 85.6473 76.0494 85.7363 75.611 85.7018C75.1727 85.6673 74.7527 85.5107 74.3987 85.2498C74.0447 84.9889 73.7709 84.634 73.6083 84.2254L70.0315 75.2823C69.8905 74.9274 69.665 74.6123 69.3745 74.3642C69.0841 74.1162 68.7375 73.9429 68.3649 73.8592L58.985 71.7282C58.5564 71.6312 58.1634 71.4163 57.8506 71.1076C57.5378 70.799 57.3177 70.409 57.215 69.9817C57.1124 69.5544 57.1314 69.1069 57.2698 68.6899C57.4083 68.2728 57.6608 67.9028 57.9986 67.6218L65.3981 61.4572C65.6923 61.2135 65.9225 60.9015 66.0686 60.5485C66.2147 60.1954 66.2723 59.8121 66.2364 59.4317L65.3554 49.841C65.3153 49.4038 65.3982 48.9641 65.5948 48.5716C65.7914 48.1791 66.0938 47.8493 66.4679 47.6196C66.842 47.3899 67.2728 47.2693 67.7118 47.2715C68.1508 47.2737 68.5805 47.3987 68.9522 47.6322Z" fill="#B0D9FF"/>
<path d="M68.9522 47.6322L77.0997 52.7651C77.4226 52.9694 77.7906 53.0917 78.1716 53.1215C78.5526 53.1512 78.9351 53.0875 79.2859 52.9358L88.1361 49.1331C88.54 48.9592 88.9845 48.9019 89.4193 48.9676C89.8541 49.0333 90.2618 49.2195 90.5963 49.5051C90.9307 49.7906 91.1784 50.1641 91.3115 50.5833C91.4445 51.0024 91.4575 51.4504 91.3489 51.8766L88.9845 61.2138C88.8902 61.5831 88.8866 61.9698 88.974 62.3409C89.0614 62.7119 89.2373 63.0563 89.4865 63.3448L95.8393 70.5861C96.1292 70.9168 96.3209 71.3219 96.3925 71.7558C96.4642 72.1897 96.4131 72.6349 96.2449 73.0413C96.0767 73.4476 95.7982 73.7987 95.4409 74.0551C95.0836 74.3114 94.6617 74.4626 94.2229 74.4917L84.6146 75.1267C84.2333 75.1522 83.8639 75.2699 83.5382 75.4697C83.2125 75.6695 82.9402 75.9454 82.7447 76.2738L77.82 84.5568C77.5955 84.9349 77.2696 85.2425 76.8792 85.4449C76.4887 85.6473 76.0494 85.7363 75.6111 85.7018C75.1727 85.6673 74.7527 85.5107 74.3987 85.2498C74.0447 84.9889 73.7709 84.634 73.6083 84.2254L70.0315 75.2823C69.8905 74.9274 69.665 74.6123 69.3745 74.3642C69.0841 74.1162 68.7375 73.9429 68.3649 73.8592L58.985 71.7282C58.5564 71.6312 58.1634 71.4163 57.8506 71.1076C57.5378 70.799 57.3177 70.409 57.215 69.9817C57.1124 69.5544 57.1314 69.1069 57.2698 68.6899C57.4083 68.2728 57.6608 67.9028 57.9986 67.6218L65.3981 61.4572C65.6923 61.2135 65.9225 60.9015 66.0686 60.5485C66.2147 60.1954 66.2723 59.8121 66.2364 59.4317L65.3554 49.841C65.3153 49.4038 65.3982 48.9641 65.5948 48.5716C65.7914 48.1791 66.0938 47.8493 66.4679 47.6196C66.842 47.3899 67.2728 47.2693 67.7118 47.2715C68.1508 47.2737 68.5805 47.3987 68.9522 47.6322Z" stroke="#020064" stroke-width="0.24" stroke-linecap="round" stroke-linejoin="round"/>
<path d="M37.0777 94.5015L44.4571 94.878C44.7499 94.8928 45.0418 94.8361 45.3077 94.7127C45.5736 94.5894 45.8054 94.4032 45.9832 94.1701L50.4761 88.3043C50.6812 88.0364 50.9572 87.8313 51.2729 87.7122C51.5885 87.5931 51.9312 87.5647 52.2621 87.6303C52.5931 87.6958 52.899 87.8527 53.1454 88.0832C53.3918 88.3136 53.5688 88.6085 53.6563 88.9343L55.5789 96.0702C55.6557 96.3526 55.7996 96.6121 55.9985 96.8268C56.1974 97.0414 56.4453 97.2047 56.721 97.3026L63.6913 99.7649C64.0091 99.8774 64.2891 100.076 64.4997 100.34C64.7103 100.603 64.8431 100.92 64.8831 101.255C64.923 101.589 64.8685 101.929 64.7258 102.234C64.5831 102.539 64.3577 102.799 64.0753 102.983L57.8831 107.016C57.638 107.177 57.4353 107.394 57.2923 107.65C57.1494 107.905 57.0705 108.192 57.0624 108.485L56.8766 115.872C56.8681 116.209 56.7654 116.537 56.5802 116.818C56.395 117.1 56.1346 117.325 55.8286 117.466C55.5225 117.608 55.183 117.661 54.8483 117.619C54.5137 117.578 54.1973 117.444 53.9349 117.232L48.192 112.591C47.9642 112.406 47.6947 112.279 47.4069 112.222C47.1191 112.165 46.8217 112.179 46.5404 112.262L39.4572 114.368C39.134 114.465 38.7902 114.469 38.4648 114.38C38.1394 114.291 37.8454 114.113 37.6162 113.865C37.387 113.618 37.2318 113.311 37.1681 112.98C37.1044 112.648 37.1348 112.306 37.2559 111.991L39.8914 105.089C39.9974 104.815 40.0347 104.52 40.0001 104.228C39.9656 103.937 39.8602 103.658 39.6932 103.417L35.504 97.3302C35.3134 97.053 35.2041 96.728 35.1882 96.392C35.1723 96.0559 35.2506 95.7221 35.4141 95.4281C35.5777 95.1341 35.8201 94.8916 36.114 94.7279C36.4079 94.5642 36.7417 94.4858 37.0777 94.5015Z" fill="#B0D9FF"/>
<path d="M37.0777 94.5015L44.4571 94.878C44.7499 94.8928 45.0418 94.8361 45.3077 94.7127C45.5736 94.5894 45.8054 94.4032 45.9832 94.1701L50.4761 88.3043C50.6812 88.0364 50.9572 87.8313 51.2729 87.7122C51.5885 87.5931 51.9312 87.5647 52.2621 87.6303C52.5931 87.6958 52.899 87.8527 53.1454 88.0832C53.3918 88.3136 53.5688 88.6085 53.6563 88.9343L55.5789 96.0702C55.6557 96.3526 55.7996 96.6121 55.9985 96.8268C56.1974 97.0414 56.4453 97.2047 56.721 97.3026L63.6913 99.7649C64.0091 99.8774 64.2891 100.076 64.4997 100.34C64.7103 100.603 64.8431 100.92 64.8831 101.255C64.923 101.589 64.8685 101.929 64.7258 102.234C64.5831 102.539 64.3577 102.799 64.0753 102.983L57.8831 107.016C57.638 107.177 57.4353 107.394 57.2923 107.65C57.1494 107.905 57.0705 108.192 57.0624 108.485L56.8766 115.872C56.8681 116.209 56.7654 116.537 56.5802 116.818C56.395 117.1 56.1346 117.325 55.8286 117.466C55.5225 117.608 55.183 117.661 54.8483 117.619C54.5137 117.578 54.1973 117.444 53.9349 117.232L48.192 112.591C47.9642 112.406 47.6947 112.279 47.4069 112.222C47.1191 112.165 46.8217 112.179 46.5404 112.262L39.4572 114.368C39.134 114.465 38.7902 114.469 38.4648 114.38C38.1394 114.291 37.8454 114.113 37.6162 113.865C37.387 113.618 37.2318 113.311 37.1681 112.98C37.1044 112.648 37.1348 112.306 37.2559 111.991L39.8914 105.089C39.9974 104.815 40.0347 104.52 40.0001 104.228C39.9656 103.937 39.8602 103.658 39.6932 103.417L35.504 97.3302C35.3134 97.053 35.2041 96.728 35.1882 96.392C35.1723 96.0559 35.2506 95.7221 35.4141 95.4281C35.5777 95.1341 35.8201 94.8916 36.114 94.7279C36.4079 94.5642 36.7417 94.4858 37.0777 94.5015Z" stroke="#020064" stroke-width="0.24" stroke-linecap="round" stroke-linejoin="round"/>
<path d="M187.261 49.841C187.302 49.4031 187.219 48.9625 187.022 48.5691C186.826 48.1758 186.523 47.8455 186.148 47.6155C185.773 47.3856 185.341 47.2653 184.901 47.2682C184.461 47.2712 184.031 47.3973 183.659 47.6322L175.512 52.7652C175.189 52.9695 174.821 53.0918 174.44 53.1216C174.059 53.1513 173.676 53.0876 173.326 52.9359L164.475 49.1332C164.071 48.9603 163.627 48.9037 163.193 48.9699C162.759 49.036 162.351 49.2223 162.017 49.5075C161.683 49.7928 161.435 50.1659 161.302 50.5845C161.169 51.0031 161.155 51.4506 161.263 51.8766L163.627 61.2138C163.722 61.5831 163.726 61.97 163.638 62.3412C163.551 62.7123 163.375 63.0567 163.125 63.3448L156.775 70.5862C156.485 70.9167 156.293 71.3216 156.221 71.7553C156.15 72.1889 156.201 72.634 156.368 73.0403C156.536 73.4465 156.814 73.7977 157.171 74.0542C157.528 74.3107 157.95 74.4622 158.389 74.4917L167.999 75.1268C168.38 75.1522 168.749 75.2699 169.075 75.4698C169.4 75.6696 169.672 75.9455 169.867 76.2738L174.791 84.5568C175.016 84.9349 175.342 85.2426 175.732 85.445C176.123 85.6474 176.562 85.7363 177 85.7018C177.439 85.6674 177.859 85.5108 178.213 85.2499C178.567 84.9889 178.841 84.6341 179.003 84.2255L182.58 75.2824C182.721 74.9276 182.947 74.6125 183.237 74.3646C183.528 74.1166 183.874 73.9431 184.247 73.8592L193.642 71.7332C194.07 71.6367 194.464 71.422 194.777 71.1135C195.09 70.805 195.31 70.415 195.413 69.9876C195.516 69.5603 195.497 69.1127 195.359 68.6955C195.221 68.2783 194.968 67.9081 194.63 67.6269L187.228 61.4623C186.935 61.2183 186.705 60.9063 186.559 60.5533C186.412 60.2004 186.355 59.8171 186.39 59.4368L187.261 49.841Z" fill="#B0D9FF"/>
<path d="M187.261 49.841C187.302 49.4031 187.219 48.9625 187.022 48.5691C186.826 48.1758 186.523 47.8455 186.148 47.6155C185.773 47.3856 185.341 47.2653 184.901 47.2682C184.461 47.2712 184.031 47.3973 183.659 47.6322L175.512 52.7652C175.189 52.9695 174.821 53.0918 174.44 53.1216C174.059 53.1513 173.676 53.0876 173.326 52.9359L164.475 49.1332C164.072 48.9595 163.627 48.9023 163.193 48.9679C162.758 49.0336 162.351 49.2196 162.017 49.5048C161.682 49.79 161.435 50.163 161.301 50.5818C161.168 51.0005 161.155 51.4482 161.263 51.8741L163.627 61.2138C163.722 61.5831 163.726 61.97 163.638 62.3412C163.551 62.7123 163.375 63.0567 163.125 63.3448L156.775 70.5862C156.485 70.9167 156.293 71.3216 156.221 71.7553C156.15 72.1889 156.201 72.634 156.368 73.0403C156.536 73.4465 156.814 73.7977 157.171 74.0542C157.528 74.3107 157.95 74.4622 158.389 74.4917L167.999 75.1268C168.38 75.1522 168.749 75.2699 169.075 75.4698C169.4 75.6696 169.672 75.9455 169.867 76.2738L174.791 84.5568C175.016 84.9349 175.342 85.2426 175.732 85.445C176.123 85.6473 176.562 85.7363 177 85.7018C177.439 85.6674 177.859 85.5108 178.213 85.2499C178.567 84.9889 178.841 84.6341 179.003 84.2255L182.58 75.2824C182.721 74.9276 182.947 74.6125 183.237 74.3646C183.528 74.1166 183.874 73.9431 184.247 73.8592L193.642 71.7332C194.07 71.6367 194.464 71.422 194.777 71.1135C195.09 70.805 195.31 70.415 195.413 69.9876C195.516 69.5603 195.497 69.1127 195.359 68.6955C195.221 68.2783 194.968 67.9081 194.63 67.6269L187.228 61.4623C186.935 61.2183 186.705 60.9063 186.559 60.5533C186.412 60.2004 186.355 59.8171 186.39 59.4368L187.261 49.841Z" stroke="#020064" stroke-width="0.24" stroke-linecap="round" stroke-linejoin="round"/>
<path d="M217.115 97.3302C217.307 97.0528 217.417 96.7272 217.433 96.3903C217.45 96.0534 217.371 95.7187 217.207 95.4242C217.042 95.1296 216.799 94.8871 216.503 94.724C216.208 94.5609 215.873 94.4838 215.536 94.5015L208.157 94.878C207.864 94.8934 207.572 94.837 207.306 94.7136C207.04 94.5903 206.808 94.4037 206.631 94.1701L202.135 88.3043C201.93 88.0364 201.654 87.8313 201.339 87.7122C201.023 87.5931 200.68 87.5647 200.349 87.6303C200.018 87.6958 199.712 87.8527 199.466 88.0832C199.22 88.3136 199.043 88.6085 198.955 88.9343L197.035 96.0702C196.958 96.3526 196.814 96.6121 196.615 96.8268C196.417 97.0414 196.169 97.2047 195.893 97.3026L188.925 99.7649C188.607 99.8766 188.326 100.075 188.115 100.339C187.903 100.602 187.77 100.919 187.73 101.254C187.69 101.589 187.745 101.929 187.888 102.234C188.032 102.54 188.258 102.799 188.541 102.983L194.731 107.016C194.977 107.176 195.18 107.393 195.323 107.649C195.466 107.905 195.545 108.192 195.552 108.485L195.74 115.872C195.748 116.209 195.851 116.537 196.036 116.818C196.222 117.1 196.482 117.325 196.788 117.466C197.094 117.608 197.433 117.661 197.768 117.619C198.103 117.578 198.419 117.444 198.682 117.232L204.432 112.591C204.659 112.406 204.928 112.28 205.216 112.223C205.503 112.165 205.8 112.179 206.081 112.262L213.164 114.368C213.488 114.464 213.831 114.468 214.157 114.379C214.482 114.29 214.776 114.112 215.005 113.865C215.234 113.617 215.39 113.311 215.454 112.98C215.518 112.649 215.488 112.306 215.368 111.991L212.73 105.089C212.625 104.815 212.588 104.52 212.623 104.228C212.658 103.937 212.762 103.659 212.928 103.417L217.115 97.3302Z" fill="#B0D9FF"/>
<path d="M217.115 97.3302C217.307 97.0528 217.417 96.7272 217.433 96.3903C217.45 96.0534 217.371 95.7187 217.207 95.4242C217.042 95.1296 216.799 94.8871 216.503 94.724C216.208 94.5609 215.873 94.4838 215.536 94.5015L208.157 94.878C207.864 94.8934 207.572 94.837 207.306 94.7137C207.04 94.5903 206.808 94.4037 206.631 94.1702L202.135 88.3043C201.93 88.0372 201.654 87.8327 201.339 87.7141C201.024 87.5954 200.681 87.5673 200.351 87.6328C200.02 87.6983 199.715 87.8549 199.469 88.0849C199.223 88.3148 199.046 88.6091 198.958 88.9343L197.035 96.0702C196.958 96.3526 196.814 96.6122 196.615 96.8268C196.417 97.0414 196.169 97.2047 195.893 97.3026L188.925 99.765C188.607 99.8766 188.326 100.075 188.115 100.339C187.903 100.602 187.77 100.919 187.73 101.254C187.69 101.589 187.745 101.929 187.888 102.234C188.032 102.54 188.258 102.799 188.541 102.983L194.731 107.016C194.977 107.176 195.18 107.393 195.323 107.649C195.466 107.905 195.545 108.192 195.552 108.485L195.74 115.872C195.748 116.209 195.851 116.537 196.036 116.818C196.222 117.1 196.482 117.325 196.788 117.466C197.094 117.608 197.433 117.661 197.768 117.619C198.103 117.578 198.419 117.444 198.682 117.232L204.432 112.591C204.659 112.406 204.928 112.28 205.216 112.223C205.503 112.165 205.8 112.179 206.081 112.262L213.167 114.368C213.49 114.464 213.833 114.467 214.158 114.378C214.483 114.289 214.777 114.11 215.005 113.863C215.234 113.616 215.39 113.31 215.454 112.979C215.518 112.648 215.488 112.306 215.368 111.991L212.73 105.089C212.625 104.815 212.588 104.52 212.623 104.228C212.658 103.937 212.762 103.659 212.928 103.417L217.115 97.3302Z" stroke="#020064" stroke-width="0.24" stroke-linecap="round" stroke-linejoin="round"/>
</svg>
