<svg width="251" height="251" viewBox="0 0 251 251" fill="none" xmlns="http://www.w3.org/2000/svg">
<path d="M20.4189 125.5C20.4189 152.128 30.9967 177.665 49.8253 196.493C68.654 215.322 94.1911 225.9 120.819 225.9C147.447 225.9 172.984 215.322 191.812 196.493C210.641 177.665 221.219 152.128 221.219 125.5C221.219 98.8722 210.641 73.3351 191.812 54.5065C172.984 35.6778 147.447 25.1 120.819 25.1C94.1911 25.1 68.654 35.6778 49.8253 54.5065C30.9967 73.3351 20.4189 98.8722 20.4189 125.5Z" fill="#D9EDFF"/>
<path d="M168.17 189.018H74.547C72.8708 189.018 71.2632 188.352 70.0779 187.167C68.8927 185.982 68.2268 184.374 68.2268 182.698V61.495C68.2268 59.7476 68.921 58.0717 70.1566 56.836C71.3922 55.6004 73.0681 54.9062 74.8156 54.9062H167.886C169.634 54.9062 171.31 55.6004 172.545 56.836C173.781 58.0717 174.475 59.7476 174.475 61.495V182.698C174.476 184.372 173.812 185.977 172.63 187.162C171.448 188.347 169.844 189.015 168.17 189.018Z" fill="#B0D9FF"/>
<path d="M168.17 189.018H74.547C72.8708 189.018 71.2632 188.352 70.0779 187.167C68.8927 185.982 68.2268 184.374 68.2268 182.698V61.495C68.2268 59.7476 68.921 58.0717 70.1566 56.836C71.3922 55.6004 73.0681 54.9062 74.8156 54.9062H167.886C169.634 54.9062 171.31 55.6004 172.545 56.836C173.781 58.0717 174.475 59.7476 174.475 61.495V182.698C174.476 184.372 173.812 185.977 172.63 187.162C171.448 188.347 169.844 189.015 168.17 189.018Z" stroke="#020064" stroke-width="0.24" stroke-linecap="round" stroke-linejoin="round"/>
<path d="M78.681 65.3528H164.026V178.566H78.681V65.3528Z" fill="white"/>
<path d="M164.026 104.137L139.242 130.994C137.679 132.693 136.854 134.942 136.948 137.248C137.043 139.554 138.048 141.728 139.744 143.293C140.809 144.274 142.104 144.97 143.509 145.316L135.452 153.376L136.685 154.608L125.801 165.489C125.314 165.974 124.981 166.593 124.844 167.266C124.707 167.94 124.772 168.639 125.031 169.276C125.29 169.913 125.731 170.459 126.3 170.846C126.868 171.233 127.538 171.443 128.226 171.451C128.479 171.45 128.731 171.424 128.979 171.373C138.517 169.345 143.369 166.415 143.424 162.655L144.082 161.995L146.546 164.46L152.608 158.381C153.038 158.725 153.498 159.028 153.983 159.287C155.586 160.14 157.416 160.471 159.216 160.234C161.016 159.996 162.697 159.202 164.023 157.962L164.026 104.137Z" fill="#B0D9FF"/>
<path d="M78.681 65.3528H164.026V178.566H78.681V65.3528Z" stroke="#020064" stroke-width="0.24" stroke-linecap="round" stroke-linejoin="round"/>
<path d="M90.8469 93.2214H144.066" stroke="#020064" stroke-width="0.24" stroke-linecap="round" stroke-linejoin="round"/>
<path d="M90.8469 108.896H144.066" stroke="#020064" stroke-width="0.24" stroke-linecap="round" stroke-linejoin="round"/>
<path d="M90.8469 126.316H127.94" stroke="#020064" stroke-width="0.24" stroke-linecap="round" stroke-linejoin="round"/>
<path d="M97.516 49.6779H145.191C146.027 49.6806 146.828 50.0147 147.419 50.607C148.009 51.1994 148.341 52.0016 148.341 52.838V69.153C148.341 69.9918 148.008 70.7962 147.415 71.3893C146.822 71.9824 146.017 72.3156 145.178 72.3156H97.5185C96.6797 72.3156 95.8753 71.9824 95.2822 71.3893C94.6891 70.7962 94.3559 69.9918 94.3559 69.153V52.838C94.3559 51.9999 94.6888 51.1961 95.2815 50.6035C95.8741 50.0109 96.6779 49.6779 97.516 49.6779Z" fill="white"/>
<path d="M97.516 49.6779H145.191C146.027 49.6806 146.828 50.0147 147.419 50.607C148.009 51.1994 148.341 52.0016 148.341 52.838V69.153C148.341 69.9918 148.008 70.7962 147.415 71.3893C146.822 71.9824 146.017 72.3156 145.178 72.3156H97.5185C96.6797 72.3156 95.8753 71.9824 95.2822 71.3893C94.6891 70.7962 94.3559 69.9918 94.3559 69.153V52.838C94.3559 51.9999 94.6888 51.1961 95.2815 50.6035C95.8741 50.0109 96.6779 49.6779 97.516 49.6779Z" stroke="#020064" stroke-width="0.24" stroke-linecap="round" stroke-linejoin="round"/>
<path d="M106.547 65.3528H136.157" stroke="#020064" stroke-width="0.24" stroke-linecap="round" stroke-linejoin="round"/>
<path d="M113.515 47.936C113.515 49.0797 113.74 50.2123 114.178 51.269C114.615 52.3257 115.257 53.2859 116.066 54.0946C116.875 54.9034 117.835 55.545 118.891 55.9827C119.948 56.4204 121.081 56.6457 122.224 56.6457C123.368 56.6457 124.501 56.4204 125.557 55.9827C126.614 55.545 127.574 54.9034 128.383 54.0946C129.192 53.2859 129.833 52.3257 130.271 51.269C130.709 50.2123 130.934 49.0797 130.934 47.936C130.934 46.7922 130.709 45.6596 130.271 44.6029C129.833 43.5462 129.192 42.586 128.383 41.7773C127.574 40.9685 126.614 40.3269 125.557 39.8892C124.501 39.4515 123.368 39.2263 122.224 39.2263C121.081 39.2263 119.948 39.4515 118.891 39.8892C117.835 40.3269 116.875 40.9685 116.066 41.7773C115.257 42.586 114.615 43.5462 114.178 44.6029C113.74 45.6596 113.515 46.7922 113.515 47.936Z" fill="white"/>
<path d="M113.515 47.936C113.515 49.0797 113.74 50.2123 114.178 51.269C114.615 52.3257 115.257 53.2859 116.066 54.0946C116.875 54.9034 117.835 55.545 118.891 55.9827C119.948 56.4204 121.081 56.6457 122.224 56.6457C123.368 56.6457 124.501 56.4204 125.557 55.9827C126.614 55.545 127.574 54.9034 128.383 54.0946C129.192 53.2859 129.833 52.3257 130.271 51.269C130.709 50.2123 130.934 49.0797 130.934 47.936C130.934 46.7922 130.709 45.6596 130.271 44.6029C129.833 43.5462 129.192 42.586 128.383 41.7773C127.574 40.9685 126.614 40.3269 125.557 39.8892C124.501 39.4515 123.368 39.2263 122.224 39.2263C121.081 39.2263 119.948 39.4515 118.891 39.8892C117.835 40.3269 116.875 40.9685 116.066 41.7773C115.257 42.586 114.615 43.5462 114.178 44.6029C113.74 45.6596 113.515 46.7922 113.515 47.936Z" stroke="#020064" stroke-width="0.24" stroke-linecap="round" stroke-linejoin="round"/>
<path d="M158.022 125.231L188.531 136.612L201.365 116.03L168.193 107.072L158.022 125.231Z" fill="#D9EDFF"/>
<path d="M206.661 159.96L230.29 136.331C230.382 136.242 230.479 136.158 230.581 136.08C222.672 129.217 220.722 114.679 205.511 106.738C185.489 96.2811 160.725 98.776 138.974 125.939C138.476 126.53 138.101 127.215 137.871 127.953C137.64 128.691 137.56 129.467 137.633 130.237C137.707 131.006 137.934 131.753 138.3 132.434C138.666 133.115 139.164 133.716 139.765 134.202C140.366 134.688 141.058 135.049 141.8 135.264C142.543 135.479 143.321 135.544 144.089 135.455C144.856 135.365 145.599 135.124 146.272 134.744C146.945 134.364 147.536 133.854 148.01 133.243C149.452 131.46 150.901 129.799 152.357 128.261C152.869 128.807 153.482 129.249 154.162 129.561C176.92 146.792 181.521 148.981 187.088 151.147C195.697 154.493 199.497 156.109 205.828 161.84C205.866 161.132 206.162 160.463 206.661 159.96ZM191.069 123.181C189.151 125.501 186.483 127.078 183.526 127.639C180.569 128.2 177.508 127.71 174.874 126.253L161.416 120.098C169.269 114.351 177.193 111.951 185.085 112.98C191.799 113.844 193.353 119.782 191.069 123.181Z" fill="white"/>
<path d="M83.0208 209.183C83.0208 210.339 87.0004 211.447 94.0842 212.265C101.168 213.082 110.776 213.541 120.794 213.541C130.812 213.541 140.419 213.082 147.503 212.265C154.587 211.447 158.567 210.339 158.567 209.183C158.567 208.028 154.587 206.919 147.503 206.102C140.419 205.285 130.812 204.826 120.794 204.826C110.776 204.826 101.168 205.285 94.0842 206.102C87.0004 206.919 83.0208 208.028 83.0208 209.183Z" fill="#B0D9FF"/>
<path d="M96.1631 144.415C95.2626 145.315 94.5979 146.423 94.228 147.642C93.8581 148.86 93.7944 150.151 94.0425 151.399C94.2906 152.648 94.8429 153.816 95.6504 154.801C96.458 155.785 97.4958 156.555 98.672 157.042C99.8482 157.529 101.126 157.719 102.393 157.594C103.66 157.47 104.877 157.034 105.936 156.327C106.994 155.62 107.862 154.662 108.462 153.539C109.062 152.416 109.376 151.163 109.376 149.89V151.436C109.359 152.26 109.507 153.078 109.811 153.844C110.115 154.61 110.568 155.308 111.145 155.896C111.722 156.485 112.41 156.952 113.17 157.272C113.93 157.591 114.745 157.755 115.569 157.755C116.393 157.755 117.209 157.591 117.969 157.272C118.728 156.952 119.417 156.485 119.993 155.896C120.57 155.308 121.024 154.61 121.327 153.844C121.631 153.078 121.779 152.26 121.763 151.436C121.763 153.078 122.415 154.653 123.576 155.814C124.738 156.976 126.313 157.628 127.955 157.628H132.598" stroke="#020064" stroke-width="0.24" stroke-linecap="round" stroke-linejoin="round"/>
<path d="M172.967 127.606C173.729 127.647 174.476 127.837 175.165 128.167C175.854 128.496 176.471 128.958 176.981 129.526C177.491 130.094 177.884 130.757 178.138 131.477C178.392 132.197 178.502 132.96 178.461 133.723L177.439 152.583C177.398 153.345 177.207 154.091 176.877 154.78C176.547 155.468 176.085 156.084 175.517 156.594C174.949 157.104 174.286 157.496 173.566 157.75C172.846 158.003 172.083 158.112 171.321 158.071C170.559 158.03 169.813 157.839 169.125 157.509C168.436 157.179 167.82 156.717 167.31 156.149C166.801 155.58 166.408 154.917 166.154 154.198C165.901 153.478 165.792 152.715 165.833 151.953L166.855 133.095C166.938 131.557 167.628 130.115 168.774 129.085C169.92 128.056 171.428 127.524 172.967 127.606Z" fill="#D9EDFF" stroke="#020064" stroke-width="0.24" stroke-linecap="round" stroke-linejoin="round"/>
<path d="M166.963 125.794C168.323 126.519 169.339 127.754 169.789 129.228C170.238 130.702 170.084 132.295 169.36 133.655L162.425 147.154C161.7 148.514 160.465 149.531 158.99 149.98C157.516 150.43 155.924 150.275 154.563 149.551C153.203 148.826 152.186 147.591 151.737 146.117C151.287 144.642 151.442 143.05 152.166 141.689L159.101 128.191C159.826 126.831 161.062 125.814 162.536 125.365C164.01 124.915 165.602 125.069 166.963 125.794Z" fill="#D9EDFF" stroke="#020064" stroke-width="0.24" stroke-linecap="round" stroke-linejoin="round"/>
<path d="M230.29 136.331C230.382 136.242 230.48 136.158 230.581 136.08C222.672 129.217 220.722 114.679 205.511 106.738C185.489 96.2811 160.725 98.776 138.974 125.939C138.476 126.53 138.101 127.215 137.871 127.953C137.64 128.691 137.56 129.467 137.633 130.237C137.707 131.006 137.934 131.753 138.3 132.434C138.666 133.115 139.164 133.716 139.765 134.202C140.366 134.688 141.058 135.049 141.8 135.264C142.543 135.479 143.321 135.544 144.089 135.455C144.856 135.365 145.599 135.124 146.272 134.744C146.945 134.364 147.536 133.854 148.01 133.243C149.452 131.46 150.901 129.799 152.357 128.261C152.869 128.807 153.482 129.249 154.162 129.561C176.92 146.792 181.521 148.981 187.088 151.147C195.697 154.493 199.497 156.109 205.828 161.84M191.079 123.186C189.16 125.507 186.49 127.085 183.53 127.645C180.571 128.205 177.509 127.713 174.874 126.253L161.416 120.098C169.269 114.351 177.193 111.951 185.085 112.98C191.799 113.844 193.353 119.782 191.069 123.181L191.079 123.186Z" stroke="#020064" stroke-width="0.24" stroke-linecap="round" stroke-linejoin="round"/>
<path d="M186.036 124.335L178.461 113.675L202.055 96.9161C202.69 96.4651 203.407 96.1435 204.166 95.9698C204.925 95.7961 205.711 95.7736 206.479 95.9036C207.247 96.0337 207.982 96.3138 208.641 96.7278C209.301 97.1418 209.872 97.6817 210.323 98.3167L211.028 99.3081C211.479 99.9429 211.801 100.66 211.975 101.419C212.148 102.179 212.171 102.964 212.041 103.732C211.911 104.5 211.631 105.235 211.217 105.894C210.803 106.554 210.263 107.125 209.628 107.576L186.036 124.335Z" fill="#B0D9FF"/>
<path d="M186.036 124.335L178.461 113.675L202.055 96.9161C202.69 96.4651 203.407 96.1435 204.166 95.9698C204.925 95.7961 205.711 95.7736 206.479 95.9036C207.247 96.0337 207.982 96.3138 208.641 96.7278C209.301 97.1418 209.872 97.6817 210.323 98.3167L211.028 99.3081C211.479 99.9429 211.801 100.66 211.975 101.419C212.148 102.179 212.171 102.964 212.041 103.732C211.911 104.5 211.631 105.235 211.217 105.894C210.803 106.554 210.263 107.125 209.628 107.576L186.036 124.335Z" stroke="#020064" stroke-width="0.24" stroke-linecap="round" stroke-linejoin="round"/>
<path d="M179.493 107.599L196.076 95.8193C196.538 95.4757 197.065 95.2293 197.625 95.0948C198.185 94.9603 198.766 94.9406 199.334 95.0367C199.902 95.1329 200.444 95.3429 200.929 95.6543C201.413 95.9656 201.83 96.3718 202.153 96.8484" stroke="#020064" stroke-width="0.24" stroke-linecap="round" stroke-linejoin="round"/>
<path d="M141.366 143.592L129.717 151.875C129.459 152.054 129.267 152.312 129.168 152.61C129.07 152.907 129.07 153.229 129.17 153.526C129.269 153.824 129.462 154.081 129.72 154.259C129.978 154.437 130.287 154.527 130.6 154.516C135.485 154.315 142.465 153.429 142.362 150.02L144.732 148.338L141.366 143.592Z" fill="#B0D9FF" stroke="#020064" stroke-width="0.24" stroke-linecap="round" stroke-linejoin="round"/>
<path d="M145.58 149.516L141.373 143.592C141.15 143.278 141.061 142.888 141.126 142.508C141.19 142.128 141.403 141.79 141.717 141.567L147.638 137.36L153.529 145.643L147.588 149.847C147.277 150.066 146.892 150.153 146.516 150.091C146.141 150.03 145.805 149.823 145.58 149.516Z" fill="white"/>
<path d="M145.58 149.516L141.373 143.592C141.15 143.278 141.061 142.888 141.126 142.508C141.19 142.128 141.403 141.79 141.717 141.567L147.638 137.36L153.529 145.643L147.588 149.847C147.277 150.066 146.892 150.153 146.516 150.091C146.141 150.03 145.805 149.823 145.58 149.516Z" stroke="#020064" stroke-width="0.24" stroke-linecap="round" stroke-linejoin="round"/>
<path d="M152.681 144.466L148.474 138.552C148.253 138.241 148.095 137.89 148.01 137.518C147.925 137.146 147.913 136.761 147.977 136.384C148.041 136.008 148.178 135.648 148.381 135.325C148.584 135.002 148.848 134.722 149.159 134.501L178.461 113.675L186.034 124.335L156.732 145.153C156.421 145.374 156.069 145.532 155.697 145.617C155.325 145.702 154.94 145.713 154.564 145.649C154.188 145.585 153.828 145.448 153.505 145.245C153.181 145.042 152.902 144.777 152.681 144.466Z" fill="#B0D9FF"/>
<path d="M152.681 144.466L148.474 138.552C148.253 138.241 148.095 137.89 148.01 137.518C147.925 137.146 147.913 136.761 147.977 136.384C148.041 136.008 148.178 135.648 148.381 135.325C148.584 135.002 148.848 134.722 149.159 134.501L178.461 113.675L186.034 124.335L156.732 145.153C156.421 145.374 156.069 145.532 155.697 145.617C155.325 145.702 154.94 145.713 154.564 145.649C154.188 145.585 153.828 145.448 153.505 145.245C153.181 145.042 152.902 144.777 152.681 144.466Z" stroke="#020064" stroke-width="0.24" stroke-linecap="round" stroke-linejoin="round"/>
<path d="M191.069 123.181C189.151 125.501 186.483 127.078 183.526 127.639C180.569 128.2 177.508 127.71 174.874 126.253L158.986 118.974C158.29 118.643 157.535 118.453 156.765 118.417C155.995 118.38 155.225 118.497 154.501 118.76C153.776 119.024 153.112 119.429 152.545 119.952C151.979 120.474 151.522 121.105 151.201 121.806C150.881 122.507 150.703 123.265 150.678 124.035C150.653 124.806 150.782 125.573 151.056 126.294C151.331 127.014 151.746 127.672 152.277 128.231C152.809 128.789 153.446 129.236 154.152 129.546C176.91 146.78 181.511 148.966 187.078 151.132" fill="white"/>
<path d="M191.069 123.181C189.151 125.501 186.483 127.078 183.526 127.639C180.569 128.2 177.508 127.71 174.874 126.253L158.986 118.974C158.29 118.643 157.535 118.453 156.765 118.417C155.995 118.38 155.225 118.497 154.501 118.76C153.776 119.024 153.112 119.429 152.545 119.952C151.979 120.474 151.522 121.105 151.201 121.806C150.881 122.507 150.703 123.265 150.678 124.035C150.653 124.806 150.782 125.573 151.056 126.294C151.331 127.014 151.746 127.672 152.277 128.231C152.809 128.789 153.446 129.236 154.152 129.546C176.91 146.78 181.511 148.966 187.078 151.132" stroke="#020064" stroke-width="0.24" stroke-linecap="round" stroke-linejoin="round"/>
<path d="M191.069 123.181C189.151 125.501 186.483 127.078 183.526 127.639C180.569 128.2 177.508 127.71 174.874 126.253L158.986 118.974C158.29 118.643 157.535 118.453 156.765 118.417C155.995 118.38 155.225 118.497 154.501 118.76C153.776 119.024 153.112 119.429 152.545 119.952C151.979 120.474 151.522 121.105 151.201 121.806C150.881 122.507 150.703 123.265 150.678 124.035C150.653 124.806 150.782 125.573 151.056 126.294C151.331 127.014 151.746 127.672 152.277 128.231C152.809 128.789 153.446 129.236 154.152 129.546C176.91 146.78 181.511 148.966 187.078 151.132" fill="white"/>
<path d="M191.069 123.181C189.151 125.501 186.483 127.078 183.526 127.639C180.569 128.2 177.508 127.71 174.874 126.253L158.986 118.974C158.29 118.643 157.535 118.453 156.765 118.417C155.995 118.38 155.225 118.497 154.501 118.76C153.776 119.024 153.112 119.429 152.545 119.952C151.979 120.474 151.522 121.105 151.201 121.806C150.881 122.507 150.703 123.265 150.678 124.035C150.653 124.806 150.782 125.573 151.056 126.294C151.331 127.014 151.746 127.672 152.277 128.231C152.809 128.789 153.446 129.236 154.152 129.546C176.91 146.78 181.511 148.966 187.078 151.132" stroke="#020064" stroke-width="0.24" stroke-linecap="round" stroke-linejoin="round"/>
</svg>
