<svg width="50" height="50" viewBox="0 0 50 50" fill="none" xmlns="http://www.w3.org/2000/svg">
<path d="M8.33336 41.6666C7.18752 41.6666 6.20627 41.2583 5.38961 40.4416C4.57294 39.6249 4.1653 38.6444 4.16669 37.4999V12.4999C4.16669 11.3541 4.57502 10.3728 5.39169 9.55617C6.20836 8.73951 7.18891 8.33187 8.33336 8.33326H41.6667C42.8125 8.33326 43.7938 8.74159 44.6104 9.55826C45.4271 10.3749 45.8348 11.3555 45.8334 12.4999V37.4999C45.8334 38.6458 45.425 39.627 44.6084 40.4437C43.7917 41.2603 42.8111 41.668 41.6667 41.6666H8.33336ZM41.6667 16.6666L26.0938 26.4062C25.9202 26.5103 25.7375 26.5888 25.5459 26.6416C25.3542 26.6944 25.1722 26.7201 25 26.7187C24.8264 26.7187 24.6438 26.693 24.4521 26.6416C24.2604 26.5902 24.0785 26.5117 23.9063 26.4062L8.33336 16.6666V37.4999H41.6667V16.6666ZM25 22.9166L41.6667 12.4999H8.33336L25 22.9166ZM8.33336 17.1874V14.1145V14.1666V14.1416V17.1874Z" fill="black"/>
</svg>
