<svg width="50" height="50" viewBox="0 0 50 50" fill="none" xmlns="http://www.w3.org/2000/svg">
<path d="M25 23.9584C23.6187 23.9584 22.2939 23.4097 21.3172 22.4329C20.3404 21.4562 19.7917 20.1314 19.7917 18.7501C19.7917 17.3687 20.3404 16.044 21.3172 15.0672C22.2939 14.0905 23.6187 13.5417 25 13.5417C26.3814 13.5417 27.7061 14.0905 28.6829 15.0672C29.6596 16.044 30.2084 17.3687 30.2084 18.7501C30.2084 19.4341 30.0736 20.1113 29.8119 20.7432C29.5501 21.3751 29.1665 21.9493 28.6829 22.4329C28.1992 22.9166 27.6251 23.3002 26.9932 23.562C26.3613 23.8237 25.684 23.9584 25 23.9584ZM25 4.16675C21.1323 4.16675 17.423 5.7032 14.688 8.43811C11.9531 11.173 10.4167 14.8823 10.4167 18.7501C10.4167 29.6876 25 45.8334 25 45.8334C25 45.8334 39.5834 29.6876 39.5834 18.7501C39.5834 14.8823 38.0469 11.173 35.312 8.43811C32.5771 5.7032 28.8678 4.16675 25 4.16675Z" fill="black"/>
</svg>
