<svg width="133" height="133" viewBox="0 0 133 133" fill="none" xmlns="http://www.w3.org/2000/svg">
<g clip-path="url(#clip0_2_2)">
<path d="M66.4997 130.625C101.915 130.625 130.625 101.915 130.625 66.4999C130.625 31.0847 101.915 2.37497 66.4997 2.37497C31.0845 2.37497 2.37476 31.0847 2.37476 66.4999C2.37476 101.915 31.0845 130.625 66.4997 130.625Z" stroke="url(#paint0_linear_2_2)" stroke-width="3.375"/>
<path d="M30.7696 43.8292C32.6629 43.8292 34.1228 44.0378 35.1497 44.4549C36.1767 44.84 37.0589 45.257 37.7971 45.7064C38.1821 45.9309 38.4871 46.1076 38.7116 46.2358C38.9684 46.3321 39.2091 46.3802 39.4336 46.3802C39.7544 46.3802 39.9792 46.2038 40.1075 45.8508C40.268 45.4977 40.3963 44.9682 40.4925 44.2624H41.5996C41.5676 44.8719 41.5195 45.6101 41.4552 46.4765C41.4232 47.3109 41.3909 48.418 41.3589 49.7977C41.3589 51.1774 41.3589 52.9906 41.3589 55.2368H40.2519C40.1236 53.5682 39.7385 51.9475 39.0967 50.3753C38.4548 48.803 37.5402 47.5193 36.3531 46.5246C35.1979 45.4977 33.77 44.9844 32.0692 44.9844C30.5289 44.9844 29.2614 45.4176 28.2667 46.284C27.2719 47.1504 26.7745 48.3537 26.7745 49.894C26.7745 51.1774 27.0954 52.2845 27.7372 53.2152C28.379 54.1135 29.3095 54.9961 30.5289 55.8625C31.7804 56.7289 33.2887 57.7717 35.0535 58.9912C36.5937 59.9858 37.9734 60.9808 39.1929 61.9754C40.4124 62.9701 41.3909 64.0933 42.1291 65.3448C42.8672 66.5962 43.2361 68.0884 43.2361 69.8212C43.2361 71.939 42.6747 73.688 41.5515 75.0677C40.4605 76.4474 39.0165 77.4905 37.2195 78.1964C35.4224 78.8702 33.4489 79.2072 31.2991 79.2072C29.3095 79.2072 27.7211 79.0146 26.5339 78.6296C25.3466 78.2445 24.3518 77.8433 23.5496 77.4262C22.8437 76.9769 22.2981 76.7524 21.9131 76.7524C21.5922 76.7524 21.3515 76.9287 21.1911 77.2818C21.0627 77.6349 20.9504 78.1644 20.8541 78.8702H19.7471C19.8113 78.1001 19.8433 77.2017 19.8433 76.1748C19.8754 75.1478 19.8915 73.8162 19.8915 72.1797C19.9235 70.5112 19.9396 68.4091 19.9396 65.8742H21.0467C21.175 67.9921 21.528 69.9817 22.1056 71.8428C22.7153 73.6718 23.6298 75.1478 24.8492 76.271C26.1007 77.3942 27.7533 77.9557 29.8069 77.9557C30.9301 77.9557 31.9248 77.7632 32.7912 77.3781C33.6896 76.961 34.4116 76.3511 34.9572 75.549C35.5028 74.7469 35.7755 73.7519 35.7755 72.5648C35.7755 71.217 35.4547 70.0457 34.8128 69.051C34.2032 68.0564 33.3526 67.1257 32.2617 66.2593C31.2028 65.3929 29.9674 64.5103 28.5555 63.612C27.0473 62.6173 25.6354 61.6223 24.3197 60.6277C23.0041 59.633 21.9451 58.4937 21.1429 57.2102C20.3728 55.9268 19.9877 54.4023 19.9877 52.6376C19.9877 50.616 20.4851 48.9633 21.4799 47.6798C22.5067 46.3641 23.8384 45.4014 25.4749 44.7918C27.1435 44.1499 28.9085 43.8292 30.7696 43.8292ZM62.5515 44.3586L74.2479 74.4901C74.6973 75.6453 75.1944 76.4474 75.74 76.8968C76.3176 77.3138 76.831 77.5386 77.2803 77.5706V78.5333C76.3176 78.469 75.1786 78.437 73.8628 78.437C72.5794 78.405 71.2798 78.3889 69.964 78.3889C68.4881 78.3889 67.0922 78.405 65.7764 78.437C64.4607 78.437 63.4179 78.469 62.6478 78.5333V77.5706C64.2843 77.5063 65.3113 77.2337 65.7283 76.7524C66.1777 76.239 66.0814 75.164 65.4395 73.5274L57.2568 51.1454L58.1232 49.894L50.807 68.9548C50.1011 70.7195 49.6679 72.1635 49.5074 73.2868C49.3791 74.41 49.4593 75.2764 49.7481 75.886C50.0688 76.4955 50.5663 76.9287 51.2402 77.1856C51.946 77.4101 52.7804 77.5386 53.7431 77.5706V78.5333C52.6842 78.469 51.6734 78.437 50.7107 78.437C49.7481 78.405 48.7692 78.3889 47.7746 78.3889C47.0687 78.3889 46.3949 78.405 45.753 78.437C45.1434 78.437 44.5978 78.469 44.1165 78.5333V77.5706C44.7903 77.4424 45.4803 77.0092 46.1862 76.271C46.892 75.5329 47.5821 74.2814 48.2559 72.5166L59.2303 44.3586C59.7436 44.3906 60.2892 44.4068 60.8668 44.4068C61.4764 44.4068 62.0382 44.3906 62.5515 44.3586ZM65.9208 64.6709V65.6336H51.5771L52.0584 64.6709H65.9208ZM109.6 44.4549V45.4176C108.573 45.5458 107.803 45.8188 107.29 46.2358C106.776 46.6209 106.423 47.2466 106.231 48.113C106.07 48.9794 105.99 50.1989 105.99 51.7712V78.6296C105.605 78.5976 105.204 78.5814 104.787 78.5814C104.402 78.5814 103.984 78.5976 103.535 78.6296L82.6453 52.1562V70.6394C82.6453 72.4042 82.7415 73.7681 82.9341 74.7308C83.1266 75.6614 83.5436 76.3353 84.1855 76.7524C84.8594 77.1374 85.9022 77.4101 87.3142 77.5706V78.5333C86.7046 78.469 85.9022 78.437 84.9075 78.437C83.9129 78.405 82.9822 78.3889 82.1158 78.3889C81.3776 78.3889 80.6237 78.405 79.8535 78.437C79.0834 78.437 78.4415 78.469 77.9282 78.5333V77.5706C78.9551 77.4101 79.7253 77.1374 80.2386 76.7524C80.7519 76.3673 81.0888 75.7416 81.2494 74.8752C81.4419 73.9768 81.5382 72.7573 81.5382 71.217V49.557C81.5382 48.3698 81.4419 47.5034 81.2494 46.9578C81.0888 46.3802 80.7361 45.9952 80.1905 45.8026C79.6771 45.5781 78.9228 45.4495 77.9282 45.4176V44.4549C78.4415 44.4869 79.0834 44.5192 79.8535 44.5512C80.6237 44.5831 81.3776 44.5993 82.1158 44.5993C82.8859 44.5993 83.6241 44.5831 84.3299 44.5512C85.0358 44.5192 85.6777 44.4869 86.2553 44.4549L104.883 67.4145V52.3488C104.883 50.584 104.787 49.2362 104.594 48.3056C104.402 47.3429 103.968 46.6529 103.294 46.2358C102.653 45.8188 101.626 45.5458 100.214 45.4176V44.4549C100.824 44.4869 101.626 44.5192 102.621 44.5512C103.615 44.5831 104.546 44.5993 105.412 44.5993C106.182 44.5993 106.936 44.5831 107.675 44.5512C108.445 44.5192 109.087 44.4869 109.6 44.4549Z" fill="url(#paint1_linear_2_2)"/>
<path d="M23.7498 88.825H41.4831" stroke="white" stroke-width="0.674999"/>
<path d="M23.7498 88.825H41.4831" stroke="white" stroke-width="0.674999"/>
<path d="M88.0331 88.825H105.766" stroke="white" stroke-width="0.674999"/>
<path d="M43.9499 92.15V85.7102H47.6606V86.3974H44.7647V88.5767H47.2188V89.2639H44.7647V92.15H43.9499ZM47.5238 92.15L49.7031 85.7102H50.6259L52.8052 92.15H51.9413L50.8124 88.5473C50.6946 88.1872 50.5831 87.8306 50.4786 87.4772C50.3738 87.1172 50.269 86.7508 50.1645 86.3778H50.1252C50.027 86.7508 49.9254 87.1172 49.8209 87.4772C49.7161 87.8306 49.6049 88.1872 49.4871 88.5473L48.3484 92.15H47.5238ZM48.6625 90.1866V89.5387H51.637V90.1866H48.6625ZM53.6589 92.15V85.7102H54.4737V88.9399H54.5031L57.1831 85.7102H58.1058L56.0934 88.1644L58.42 92.15H57.507L55.583 88.8025L54.4737 90.1081V92.15H53.6589ZM60.4571 92.15V86.4072H58.5134V85.7102H63.2254V86.4072H61.2817V92.15H60.4571ZM66.6232 92.2678C66.2895 92.2678 65.982 92.2219 65.7005 92.1303C65.4256 92.0322 65.1833 91.8783 64.974 91.669C64.7647 91.453 64.601 91.1683 64.4832 90.8149C64.3654 90.4615 64.3065 90.0327 64.3065 89.5289V85.7102H65.1213V89.5486C65.1213 90.0524 65.1868 90.4517 65.3176 90.7462C65.455 91.034 65.6349 91.2402 65.8575 91.3646C66.0865 91.4824 66.3417 91.5413 66.6232 91.5413C66.9047 91.5413 67.16 91.4824 67.3889 91.3646C67.6245 91.2402 67.811 91.034 67.9485 90.7462C68.0859 90.4517 68.1546 90.0524 68.1546 89.5486V85.7102H68.9301V89.5289C68.9301 90.0327 68.8712 90.4615 68.7534 90.8149C68.6423 91.1683 68.4817 91.453 68.2724 91.669C68.0631 91.8783 67.8177 92.0322 67.5362 92.1303C67.2547 92.2219 66.9503 92.2678 66.6232 92.2678ZM70.6142 92.15V85.7102H72.6266C73.0649 85.7102 73.4544 85.7691 73.7948 85.8869C74.1349 85.9981 74.3999 86.1881 74.5899 86.4563C74.7863 86.7182 74.8844 87.0716 74.8844 87.5165C74.8844 87.9484 74.7863 88.305 74.5899 88.5865C74.3999 88.868 74.1349 89.0805 73.7948 89.2246C73.4544 89.362 73.0649 89.4308 72.6266 89.4308H71.429V92.15H70.6142ZM71.429 88.7632H72.5088C73.0126 88.7632 73.3986 88.6619 73.6672 88.4589C73.9354 88.2496 74.0696 87.9355 74.0696 87.5165C74.0696 87.0976 73.9354 86.8031 73.6672 86.633C73.3986 86.4563 73.0126 86.368 72.5088 86.368H71.429V88.7632ZM74.1482 92.15L72.4695 89.205L73.1076 88.773L75.0709 92.15H74.1482ZM76.1539 92.15V85.7102H79.8646V86.3974H76.9687V88.4196H79.4131V89.1166H76.9687V91.453H79.9628V92.15H76.1539ZM83.0683 92.2678C82.6101 92.2678 82.1912 92.1826 81.8118 92.0125C81.4321 91.8358 81.0984 91.6002 80.8105 91.3057L81.2719 90.7756C81.5008 91.0179 81.7725 91.2076 82.0867 91.345C82.4071 91.4824 82.7378 91.5512 83.0782 91.5512C83.5034 91.5512 83.8341 91.4562 84.0697 91.2665C84.3053 91.0701 84.4231 90.8149 84.4231 90.5008C84.4231 90.2782 84.374 90.1015 84.2758 89.9707C84.184 89.8399 84.0564 89.7284 83.8929 89.6369C83.7359 89.5454 83.5557 89.4536 83.353 89.362L82.4303 88.9596C82.2206 88.868 82.0145 88.7534 81.8118 88.616C81.6155 88.4785 81.4518 88.305 81.321 88.0957C81.1899 87.8797 81.1246 87.6147 81.1246 87.3005C81.1246 86.9734 81.2095 86.6821 81.3799 86.4269C81.5566 86.165 81.7953 85.9623 82.0965 85.8182C82.404 85.6678 82.7542 85.5924 83.1469 85.5924C83.5396 85.5924 83.8993 85.6643 84.2267 85.8084C84.5538 85.9525 84.8287 86.139 85.0513 86.368L84.6096 86.8981C84.4066 86.7214 84.184 86.5808 83.942 86.4759C83.6998 86.3648 83.4347 86.3091 83.1469 86.3091C82.7868 86.3091 82.4955 86.3942 82.2732 86.5643C82.0572 86.7343 81.9492 86.9636 81.9492 87.2515C81.9492 87.4544 82.0015 87.6213 82.1063 87.7521C82.2108 87.8829 82.3451 87.9909 82.5088 88.0761C82.6788 88.1612 82.8489 88.2429 83.0193 88.3215L83.9322 88.7141C84.1874 88.8253 84.4132 88.9529 84.6096 89.097C84.8122 89.2411 84.9693 89.4209 85.0808 89.6369C85.1986 89.8529 85.2575 90.1179 85.2575 90.4321C85.2575 90.7725 85.1691 91.0831 84.9924 91.3646C84.8221 91.6395 84.5703 91.8586 84.2365 92.0224C83.9091 92.1861 83.5199 92.2678 83.0683 92.2678Z" fill="white"/>
</g>
<defs>
<linearGradient id="paint0_linear_2_2" x1="62.3197" y1="104.183" x2="32.4258" y2="26.6322" gradientUnits="userSpaceOnUse">
<stop stop-color="#4481EB"/>
<stop offset="1" stop-color="#05BEFE"/>
</linearGradient>
<linearGradient id="paint1_linear_2_2" x1="61.1689" y1="76.6387" x2="50.5619" y2="36.3805" gradientUnits="userSpaceOnUse">
<stop stop-color="#4481EB"/>
<stop offset="1" stop-color="#05BEFE"/>
</linearGradient>
<clipPath id="clip0_2_2">
<rect width="133" height="133" fill="white"/>
</clipPath>
</defs>
</svg>
