<svg width="251" height="251" viewBox="0 0 251 251" fill="none" xmlns="http://www.w3.org/2000/svg">
<path d="M25.1 125.5C25.1 152.128 35.6778 177.665 54.5065 196.493C73.3351 215.322 98.8723 225.9 125.5 225.9C152.128 225.9 177.665 215.322 196.494 196.493C215.322 177.665 225.9 152.128 225.9 125.5C225.9 98.8722 215.322 73.3351 196.494 54.5065C177.665 35.6778 152.128 25.1 125.5 25.1C98.8723 25.1 73.3351 35.6778 54.5065 54.5065C35.6778 73.3351 25.1 98.8722 25.1 125.5Z" fill="#D9EDFF"/>
<path d="M153.11 202.432C153.11 200.353 140.748 198.667 125.5 198.667C110.252 198.667 97.89 200.353 97.89 202.432C97.89 204.51 110.252 206.197 125.5 206.197C140.748 206.197 153.11 204.51 153.11 202.432Z" fill="#B0D9FF"/>
<path d="M154.551 123.856L127.862 70.4783C127.643 70.0396 127.306 69.6706 126.888 69.4128C126.471 69.1549 125.99 69.0183 125.5 69.0183C125.01 69.0183 124.529 69.1549 124.112 69.4128C123.694 69.6706 123.357 70.0396 123.138 70.4783L96.4492 123.856L62.6094 94.5266C62.1937 94.1649 61.6752 93.9424 61.1267 93.8902C60.5781 93.838 60.027 93.9587 59.5505 94.2355C59.0739 94.5122 58.6959 94.931 58.4694 95.4333C58.2429 95.9356 58.1792 96.4962 58.2872 97.0366L72.6796 171.405C72.6796 171.405 72.6795 184.61 125.5 184.61C178.32 184.61 178.318 171.405 178.318 171.405L192.713 97.0366C192.821 96.4962 192.757 95.9356 192.531 95.4333C192.304 94.931 191.926 94.5122 191.45 94.2355C190.973 93.9587 190.422 93.838 189.873 93.8902C189.325 93.9424 188.806 94.1649 188.391 94.5266L154.551 123.856Z" fill="white"/>
<path d="M70.4156 159.689L72.6746 171.393C72.6746 171.393 72.6746 184.598 125.495 184.598C178.315 184.598 178.313 171.393 178.313 171.393L180.572 159.689C175.502 163.562 161.913 168.752 125.487 168.752C89.0623 168.752 75.4832 163.562 70.4156 159.689Z" fill="#B0D9FF"/>
<path d="M70.4156 159.689C75.4832 163.562 89.0724 168.752 125.5 168.752C161.928 168.752 175.514 163.562 180.584 159.689" stroke="#020064" stroke-width="0.24" stroke-linejoin="round"/>
<path d="M154.551 123.856L127.862 70.4783C127.643 70.0396 127.306 69.6706 126.888 69.4128C126.471 69.1549 125.99 69.0183 125.5 69.0183C125.01 69.0183 124.529 69.1549 124.112 69.4128C123.694 69.6706 123.357 70.0396 123.138 70.4783L96.4492 123.856L62.6094 94.5266C62.1937 94.1649 61.6752 93.9424 61.1267 93.8902C60.5781 93.838 60.027 93.9587 59.5505 94.2355C59.0739 94.5122 58.6959 94.931 58.4694 95.4333C58.2429 95.9357 58.1792 96.4962 58.2872 97.0366L72.6796 171.405C72.6796 171.405 72.6795 184.61 125.5 184.61C178.32 184.61 178.318 171.405 178.318 171.405L192.713 97.0366C192.821 96.4962 192.757 95.9357 192.531 95.4333C192.304 94.931 191.926 94.5122 191.45 94.2355C190.973 93.9587 190.422 93.838 189.873 93.8902C189.325 93.9424 188.806 94.1649 188.391 94.5266L154.551 123.856Z" stroke="#020064" stroke-width="0.24" stroke-linejoin="round"/>
<path d="M175.394 59.9086C175.733 58.4461 176.476 57.1081 177.538 56.0464C178.6 54.9848 179.938 54.2419 181.4 53.9022L193.448 51.1211C193.668 51.0686 193.863 50.9437 194.003 50.7665C194.142 50.5894 194.218 50.3704 194.218 50.1447C194.218 49.9191 194.142 49.7001 194.003 49.5229C193.863 49.3458 193.668 49.2209 193.448 49.1684L181.4 46.3898C179.937 46.0517 178.598 45.3094 177.536 44.2475C176.474 43.1855 175.732 41.8466 175.394 40.3834L172.613 28.3353C172.56 28.1159 172.435 27.9206 172.258 27.7809C172.081 27.6412 171.862 27.5652 171.636 27.5652C171.411 27.5652 171.192 27.6412 171.015 27.7809C170.837 27.9206 170.712 28.1159 170.66 28.3353L167.881 40.3834C167.542 41.8459 166.799 43.1839 165.737 44.2455C164.675 45.3072 163.337 46.0501 161.875 46.3898L149.827 49.1684C149.608 49.2209 149.412 49.3458 149.272 49.5229C149.133 49.7001 149.057 49.9191 149.057 50.1447C149.057 50.3704 149.133 50.5894 149.272 50.7665C149.412 50.9437 149.608 51.0686 149.827 51.1211L161.875 53.9022C163.338 54.2404 164.676 54.9828 165.738 56.0448C166.799 57.1068 167.541 58.4456 167.879 59.9086L170.66 71.9566C170.712 72.176 170.837 72.3714 171.015 72.5111C171.192 72.6508 171.411 72.7268 171.636 72.7268C171.862 72.7268 172.081 72.6508 172.258 72.5111C172.435 72.3714 172.56 72.176 172.613 71.9566L175.394 59.9086Z" fill="white" stroke="#020064" stroke-width="0.24" stroke-linecap="round" stroke-linejoin="round"/>
<path d="M235.857 130.098C236.075 129.162 236.551 128.305 237.231 127.626C237.911 126.946 238.768 126.47 239.705 126.253L247.448 124.466C247.589 124.432 247.715 124.352 247.805 124.238C247.895 124.124 247.944 123.983 247.944 123.838C247.944 123.693 247.895 123.552 247.805 123.439C247.715 123.325 247.589 123.245 247.448 123.211L239.705 121.414C238.765 121.196 237.905 120.719 237.222 120.037C236.54 119.355 236.063 118.496 235.845 117.556L234.06 109.815C234.026 109.674 233.946 109.548 233.832 109.458C233.718 109.368 233.578 109.319 233.433 109.319C233.287 109.319 233.147 109.368 233.033 109.458C232.919 109.548 232.839 109.674 232.805 109.815L231.02 117.556C230.803 118.496 230.325 119.356 229.643 120.038C228.96 120.72 228.1 121.197 227.16 121.414L219.422 123.198C219.281 123.232 219.155 123.312 219.065 123.426C218.975 123.54 218.926 123.681 218.926 123.826C218.926 123.971 218.975 124.112 219.065 124.226C219.155 124.339 219.281 124.42 219.422 124.453L227.16 126.24C228.1 126.457 228.96 126.934 229.642 127.616C230.325 128.298 230.801 129.158 231.018 130.098L232.805 137.842C232.839 137.983 232.919 138.108 233.033 138.198C233.147 138.288 233.287 138.337 233.433 138.337C233.578 138.337 233.718 138.288 233.832 138.198C233.946 138.108 234.026 137.983 234.06 137.842L235.857 130.098Z" fill="white" stroke="#020064" stroke-width="0.24" stroke-linecap="round" stroke-linejoin="round"/>
<path d="M80.9525 71.4848C81.2204 70.3227 81.8096 69.2594 82.6529 68.4161C83.4961 67.5729 84.5595 66.9837 85.7215 66.7158L95.2846 64.5095C95.459 64.4683 95.6144 64.3694 95.7256 64.2289C95.8368 64.0883 95.8973 63.9144 95.8973 63.7352C95.8973 63.556 95.8368 63.382 95.7256 63.2415C95.6144 63.1009 95.459 63.002 95.2846 62.9608L85.7215 60.7545C84.5592 60.4872 83.4956 59.8982 82.6522 59.0548C81.8089 58.2115 81.2199 57.1478 80.9525 55.9855L78.7462 46.435C78.7071 46.2588 78.6091 46.1011 78.4683 45.9882C78.3275 45.8752 78.1524 45.8136 77.9719 45.8136C77.7914 45.8136 77.6163 45.8752 77.4755 45.9882C77.3347 46.1011 77.2367 46.2588 77.1976 46.435L74.9913 55.9905C74.7237 57.1527 74.1346 58.2162 73.2913 59.0595C72.448 59.9028 71.3845 60.4919 70.2223 60.7596L60.6642 62.9633C60.4898 63.0045 60.3344 63.1034 60.2232 63.244C60.112 63.3845 60.0515 63.5585 60.0515 63.7377C60.0515 63.9169 60.112 64.0908 60.2232 64.2314C60.3344 64.3719 60.4898 64.4708 60.6642 64.512L70.2223 66.7183C71.3843 66.9862 72.4477 67.5754 73.2909 68.4186C74.1342 69.2619 74.7234 70.3252 74.9913 71.4873L77.1976 81.0504C77.2388 81.2248 77.3377 81.3802 77.4782 81.4914C77.6187 81.6025 77.7927 81.663 77.9719 81.663C78.1511 81.663 78.3251 81.6025 78.4656 81.4914C78.6061 81.3802 78.705 81.2248 78.7462 81.0504L80.9525 71.4848Z" fill="white" stroke="#020064" stroke-width="0.24" stroke-linecap="round" stroke-linejoin="round"/>
</svg>
