<svg width="796" height="597" viewBox="0 0 796 597" fill="none" xmlns="http://www.w3.org/2000/svg">
<path fill-rule="evenodd" clip-rule="evenodd" d="M412.203 100.86C412.203 80.292 428.877 63.6182 449.445 63.6182C470.014 63.6182 486.687 80.292 486.687 100.86C486.687 121.429 470.014 138.102 449.445 138.102C428.877 138.102 412.203 121.429 412.203 100.86ZM438.906 105.226C440.672 109.488 444.831 112.268 449.445 112.268V112.268C452.471 112.268 455.372 111.066 457.512 108.927C459.651 106.787 460.853 103.886 460.853 100.86C460.853 96.2464 458.073 92.0868 453.811 90.3211C449.548 88.5555 444.641 89.5315 441.379 92.794C438.116 96.0565 437.14 100.963 438.906 105.226Z" fill="#CDE2FD"/>
<path fill-rule="evenodd" clip-rule="evenodd" d="M52.3543 317.633C52.3543 297.065 69.0281 280.391 89.5964 280.391C110.165 280.391 126.839 297.065 126.839 317.633C126.839 338.201 110.165 354.875 89.5964 354.875C69.0281 354.875 52.3543 338.201 52.3543 317.633ZM79.0572 321.999C80.8229 326.261 84.9825 329.041 89.5964 329.041C92.6219 329.041 95.5234 327.839 97.6627 325.699C99.802 323.56 101.004 320.658 101.004 317.633C101.004 313.019 98.2245 308.86 93.9618 307.094C89.6991 305.328 84.7926 306.304 81.53 309.567C78.2675 312.829 77.2915 317.736 79.0572 321.999Z" fill="#CDE2FD"/>
<path fill-rule="evenodd" clip-rule="evenodd" d="M693.446 354.94C693.446 344.645 701.792 336.299 712.087 336.299C717.031 336.299 721.772 338.263 725.268 341.759C728.764 345.255 730.728 349.996 730.728 354.94C730.728 365.235 722.382 373.581 712.087 373.581C701.792 373.581 693.446 365.235 693.446 354.94ZM706.812 357.125C707.696 359.259 709.778 360.65 712.087 360.65C713.601 360.65 715.054 360.048 716.124 358.978C717.195 357.907 717.797 356.454 717.797 354.94C717.797 352.631 716.406 350.549 714.272 349.665C712.138 348.781 709.682 349.27 708.049 350.903C706.416 352.536 705.928 354.992 706.812 357.125Z" fill="#CDE2FD"/>
<circle cx="582.248" cy="260.595" r="9.84525" fill="#AED3FF"/>
<circle cx="286.402" cy="411.898" r="9.84525" fill="#AED3FF"/>
<path d="M130.759 180.778H122.543V172.562C122.543 169.595 120.138 167.19 117.171 167.19C114.204 167.19 111.799 169.595 111.799 172.562V180.778H103.583C100.617 180.778 98.2117 183.183 98.2117 186.15C98.2117 189.116 100.617 191.521 103.583 191.521H111.799V199.737C111.799 202.704 114.204 205.109 117.171 205.109C120.138 205.109 122.543 202.704 122.543 199.737V191.521H130.759C133.725 191.521 136.13 189.116 136.131 186.15C136.13 183.183 133.725 180.778 130.759 180.778Z" fill="#AFD3FF"/>
<path d="M400.227 341.366H392.011V333.15C392.011 330.183 389.606 327.778 386.64 327.778C383.673 327.778 381.268 330.183 381.268 333.15V341.366H373.052C370.085 341.366 367.68 343.771 367.68 346.738C367.68 349.704 370.085 352.109 373.052 352.109H381.268V360.325C381.268 363.292 383.673 365.697 386.64 365.697C389.606 365.697 392.011 363.292 392.011 360.325V352.11H400.227C401.652 352.11 403.018 351.544 404.026 350.536C405.033 349.529 405.599 348.162 405.599 346.738C405.599 343.771 403.194 341.366 400.227 341.366Z" fill="#D9E9FF"/>
<path d="M596.373 322.345H588.157V314.129C588.157 311.163 585.752 308.758 582.785 308.758C579.818 308.758 577.413 311.163 577.413 314.129V322.345H569.197C566.231 322.345 563.826 324.75 563.826 327.717C563.826 330.684 566.231 333.089 569.197 333.089H577.413V341.305C577.413 344.271 579.818 346.676 582.785 346.676C585.752 346.676 588.157 344.271 588.157 341.305V333.089H596.373C599.339 333.089 601.744 330.684 601.744 327.717C601.744 326.292 601.178 324.926 600.171 323.919C599.164 322.911 597.797 322.345 596.373 322.345Z" fill="#AFD3FF"/>
<path d="M97.7971 432.159L96.1185 430.48L97.7971 428.802C98.4033 428.196 98.4033 427.213 97.7971 426.607C97.1909 426.001 96.2082 426.001 95.602 426.607L93.9234 428.285L92.2448 426.607C91.6386 426.001 90.6558 426.001 90.0496 426.607C89.4435 427.213 89.4435 428.196 90.0496 428.802L91.7283 430.48L90.0496 432.159C89.4435 432.765 89.4435 433.748 90.0496 434.354C90.6558 434.96 91.6386 434.96 92.2448 434.354L93.9234 432.676L95.602 434.354C96.2082 434.96 97.1909 434.96 97.7971 434.354C98.4033 433.748 98.4033 432.765 97.7971 432.159Z" fill="#AFD3FF"/>
<path d="M343.071 80.3967C343.073 79.4389 342.485 78.5785 341.592 78.2321C333.859 75.3087 327.754 69.2037 324.83 61.4701C324.484 60.5772 323.623 59.9896 322.666 59.9919C321.708 59.9896 320.848 60.5772 320.501 61.4701C317.578 69.2037 311.473 75.3087 303.739 78.2321C302.846 78.5785 302.259 79.4389 302.261 80.3967C302.259 81.3545 302.846 82.2149 303.739 82.5613C311.473 85.4846 317.578 91.5896 320.501 99.3232C320.848 100.216 321.708 100.804 322.666 100.802C323.623 100.804 324.484 100.216 324.83 99.3233C327.754 91.5897 333.859 85.4847 341.592 82.5613C342.485 82.2149 343.073 81.3545 343.071 80.3967Z" fill="#D9E9FF"/>
<path d="M702.519 231.154C702.522 230.197 701.934 229.336 701.041 228.99C693.308 226.066 687.203 219.961 684.279 212.228C683.933 211.335 683.072 210.747 682.115 210.75C681.157 210.747 680.296 211.335 679.95 212.228C677.027 219.961 670.922 226.066 663.188 228.99C662.295 229.336 661.707 230.197 661.71 231.154C661.707 232.112 662.295 232.973 663.188 233.319C670.922 236.242 677.027 242.347 679.95 250.081C680.296 250.974 681.157 251.562 682.115 251.559C683.072 251.562 683.933 250.974 684.279 250.081C687.203 242.347 693.308 236.242 701.041 233.319C701.934 232.973 702.522 232.112 702.519 231.154Z" fill="#D9E9FF"/>
<mask id="mask0_2_9" style="mask-type:luminance" maskUnits="userSpaceOnUse" x="0" y="0" width="796" height="597">
<rect width="796" height="597" fill="white"/>
</mask>
<g mask="url(#mask0_2_9)">
<rect x="347.849" y="216.82" width="193.886" height="34.4771" rx="2.97264" fill="white" stroke="#143C9A" stroke-width="1.5702" stroke-linecap="round" stroke-linejoin="round"/>
<rect x="360.819" y="222.168" width="3.71722" height="23.7804" rx="0.885763" fill="#DAE9FF"/>
<rect x="373.452" y="222.168" width="3.71722" height="23.7804" rx="0.885763" fill="#DAE9FF"/>
<rect x="386.085" y="222.168" width="3.71722" height="23.7804" rx="0.885763" fill="#DAE9FF"/>
<rect x="398.718" y="222.168" width="3.71722" height="23.7804" rx="0.885763" fill="#DAE9FF"/>
<rect x="411.351" y="222.168" width="3.71722" height="23.7804" rx="0.885763" fill="#DAE9FF"/>
<rect x="423.984" y="222.168" width="3.71722" height="23.7804" rx="0.885763" fill="#DAE9FF"/>
<rect x="436.617" y="222.168" width="3.71722" height="23.7804" rx="0.885763" fill="#DAE9FF"/>
<rect x="449.25" y="222.168" width="3.71722" height="23.7804" rx="0.885763" fill="#DAE9FF"/>
<rect x="461.883" y="222.168" width="3.71722" height="23.7804" rx="0.885763" fill="#DAE9FF"/>
<rect x="474.516" y="222.168" width="3.71722" height="23.7804" rx="0.885763" fill="#DAE9FF"/>
<rect x="487.149" y="222.168" width="3.71722" height="23.7804" rx="0.885763" fill="#DAE9FF"/>
<rect x="499.782" y="222.168" width="3.71722" height="23.7804" rx="0.885763" fill="#DAE9FF"/>
<rect x="512.415" y="222.168" width="3.71722" height="23.7804" rx="0.885763" fill="#DAE9FF"/>
<rect x="525.048" y="222.168" width="3.71722" height="23.7804" rx="0.885763" fill="#DAE9FF"/>
<rect x="339.674" y="251.297" width="193.886" height="34.4771" rx="2.97264" fill="white"/>
<mask id="mask1_2_9" style="mask-type:luminance" maskUnits="userSpaceOnUse" x="339" y="251" width="195" height="35">
<rect x="339.674" y="251.297" width="193.886" height="34.4771" rx="2.97264" fill="white"/>
</mask>
<g mask="url(#mask1_2_9)">
<path d="M339.674 270.639C324.493 242.452 485.805 256.645 480.833 251.297C475.861 245.948 364.537 244.599 364.537 244.599L331.928 245.948" fill="#DAE9FF"/>
</g>
<rect x="339.674" y="251.297" width="193.886" height="34.4771" rx="2.97264" stroke="#143C9A" stroke-width="1.5702" stroke-linecap="round" stroke-linejoin="round"/>
<rect x="352.644" y="256.645" width="3.71722" height="23.7804" rx="0.885763" fill="#DAE9FF"/>
<rect x="365.277" y="256.645" width="3.71722" height="23.7804" rx="0.885763" fill="#DAE9FF"/>
<rect x="377.91" y="256.645" width="3.71722" height="23.7804" rx="0.885763" fill="#DAE9FF"/>
<rect x="390.543" y="256.645" width="3.71722" height="23.7804" rx="0.885763" fill="#DAE9FF"/>
<rect x="403.176" y="256.645" width="3.71722" height="23.7804" rx="0.885763" fill="#DAE9FF"/>
<rect x="415.809" y="256.645" width="3.71722" height="23.7804" rx="0.885763" fill="#DAE9FF"/>
<rect x="428.442" y="256.645" width="3.71722" height="23.7804" rx="0.885763" fill="#DAE9FF"/>
<rect x="441.075" y="256.645" width="3.71722" height="23.7804" rx="0.885763" fill="#DAE9FF"/>
<rect x="453.708" y="256.645" width="3.71722" height="23.7804" rx="0.885763" fill="#DAE9FF"/>
<rect x="466.341" y="256.645" width="3.71722" height="23.7804" rx="0.885763" fill="#DAE9FF"/>
<rect x="478.974" y="256.645" width="3.71722" height="23.7804" rx="0.885763" fill="#DAE9FF"/>
<rect x="491.607" y="256.645" width="3.71722" height="23.7804" rx="0.885763" fill="#DAE9FF"/>
<rect x="504.24" y="256.645" width="3.71722" height="23.7804" rx="0.885763" fill="#DAE9FF"/>
<rect x="516.873" y="256.645" width="3.71722" height="23.7804" rx="0.885763" fill="#DAE9FF"/>
<rect x="349.708" y="285.774" width="193.886" height="34.4771" rx="2.97264" fill="white"/>
<mask id="mask2_2_9" style="mask-type:luminance" maskUnits="userSpaceOnUse" x="349" y="285" width="195" height="36">
<rect x="349.708" y="285.774" width="193.886" height="34.4771" rx="2.97264" fill="white"/>
</mask>
<g mask="url(#mask2_2_9)">
<path d="M349.708 305.116C334.527 276.929 544.053 291.122 539.081 285.774C534.11 280.426 374.57 279.076 374.57 279.076L341.962 280.426" fill="#DAE9FF"/>
</g>
<rect x="349.708" y="285.774" width="193.886" height="34.4771" rx="2.97264" stroke="#143C9A" stroke-width="1.5702" stroke-linecap="round" stroke-linejoin="round"/>
<rect x="362.678" y="291.122" width="3.71722" height="23.7804" rx="0.885763" fill="#DAE9FF"/>
<rect x="375.311" y="291.122" width="3.71722" height="23.7804" rx="0.885763" fill="#DAE9FF"/>
<rect x="387.944" y="291.122" width="3.71722" height="23.7804" rx="0.885763" fill="#DAE9FF"/>
<rect x="400.577" y="291.122" width="3.71722" height="23.7804" rx="0.885763" fill="#DAE9FF"/>
<rect x="413.21" y="291.122" width="3.71722" height="23.7804" rx="0.885763" fill="#DAE9FF"/>
<rect x="425.843" y="291.122" width="3.71722" height="23.7804" rx="0.885763" fill="#DAE9FF"/>
<rect x="438.476" y="291.122" width="3.71722" height="23.7804" rx="0.885763" fill="#DAE9FF"/>
<rect x="451.109" y="291.122" width="3.71722" height="23.7804" rx="0.885763" fill="#DAE9FF"/>
<rect x="463.742" y="291.122" width="3.71722" height="23.7804" rx="0.885763" fill="#DAE9FF"/>
<rect x="476.375" y="291.122" width="3.71722" height="23.7804" rx="0.885763" fill="#DAE9FF"/>
<rect x="489.008" y="291.122" width="3.71722" height="23.7804" rx="0.885763" fill="#DAE9FF"/>
<rect x="501.641" y="291.122" width="3.71722" height="23.7804" rx="0.885763" fill="#DAE9FF"/>
<rect x="514.274" y="291.122" width="3.71722" height="23.7804" rx="0.885763" fill="#DAE9FF"/>
<rect x="526.907" y="291.122" width="3.71722" height="23.7804" rx="0.885763" fill="#DAE9FF"/>
<rect x="360.482" y="320.251" width="193.886" height="34.4771" rx="2.97264" fill="white"/>
<mask id="mask3_2_9" style="mask-type:luminance" maskUnits="userSpaceOnUse" x="360" y="320" width="195" height="35">
<rect x="360.482" y="320.251" width="193.886" height="34.4771" rx="2.97264" fill="white"/>
</mask>
<g mask="url(#mask3_2_9)">
<path d="M360.482 339.594C345.301 311.406 554.828 325.599 549.856 320.251C544.884 314.903 385.345 313.553 385.345 313.553L352.736 314.903" fill="#DAE9FF"/>
</g>
<rect x="360.482" y="320.251" width="193.886" height="34.4771" rx="2.97264" stroke="#143C9A" stroke-width="1.5702" stroke-linecap="round" stroke-linejoin="round"/>
<rect x="373.452" y="325.599" width="3.71722" height="23.7804" rx="0.885763" fill="#DAE9FF"/>
<rect x="386.085" y="325.599" width="3.71722" height="23.7804" rx="0.885763" fill="#DAE9FF"/>
<rect x="398.718" y="325.599" width="3.71722" height="23.7804" rx="0.885763" fill="#DAE9FF"/>
<rect x="411.351" y="325.599" width="3.71722" height="23.7804" rx="0.885763" fill="#DAE9FF"/>
<rect x="423.984" y="325.599" width="3.71722" height="23.7804" rx="0.885763" fill="#DAE9FF"/>
<rect x="436.617" y="325.599" width="3.71722" height="23.7804" rx="0.885763" fill="#DAE9FF"/>
<rect x="449.25" y="325.599" width="3.71722" height="23.7804" rx="0.885763" fill="#DAE9FF"/>
<rect x="461.883" y="325.599" width="3.71722" height="23.7804" rx="0.885763" fill="#DAE9FF"/>
<rect x="474.516" y="325.599" width="3.71722" height="23.7804" rx="0.885763" fill="#DAE9FF"/>
<rect x="487.149" y="325.599" width="3.71722" height="23.7804" rx="0.885763" fill="#DAE9FF"/>
<rect x="499.782" y="325.599" width="3.71722" height="23.7804" rx="0.885763" fill="#DAE9FF"/>
<rect x="512.415" y="325.599" width="3.71722" height="23.7804" rx="0.885763" fill="#DAE9FF"/>
<rect x="525.048" y="325.599" width="3.71722" height="23.7804" rx="0.885763" fill="#DAE9FF"/>
<rect x="537.681" y="325.599" width="3.71722" height="23.7804" rx="0.885763" fill="#DAE9FF"/>
<rect x="345.991" y="354.728" width="193.886" height="34.4771" rx="2.97264" fill="white"/>
<mask id="mask4_2_9" style="mask-type:luminance" maskUnits="userSpaceOnUse" x="345" y="354" width="195" height="36">
<rect x="345.991" y="354.728" width="193.886" height="34.4771" rx="2.97264" fill="white"/>
</mask>
<g mask="url(#mask4_2_9)">
<path d="M345.991 374.071C330.81 345.884 540.336 360.076 535.364 354.728C530.392 349.38 370.853 348.03 370.853 348.03L338.244 349.38" fill="#DAE9FF"/>
</g>
<rect x="345.991" y="354.728" width="193.886" height="34.4771" rx="2.97264" stroke="#143C9A" stroke-width="1.5702" stroke-linecap="round" stroke-linejoin="round"/>
<rect x="358.961" y="360.076" width="3.71722" height="23.7804" rx="0.885763" fill="#DAE9FF"/>
<rect x="371.594" y="360.076" width="3.71722" height="23.7804" rx="0.885763" fill="#DAE9FF"/>
<rect x="384.227" y="360.076" width="3.71722" height="23.7804" rx="0.885763" fill="#DAE9FF"/>
<rect x="396.86" y="360.076" width="3.71722" height="23.7804" rx="0.885763" fill="#DAE9FF"/>
<rect x="409.493" y="360.076" width="3.71722" height="23.7804" rx="0.885763" fill="#DAE9FF"/>
<rect x="422.126" y="360.076" width="3.71722" height="23.7804" rx="0.885763" fill="#DAE9FF"/>
<rect x="434.759" y="360.076" width="3.71722" height="23.7804" rx="0.885763" fill="#DAE9FF"/>
<rect x="447.392" y="360.076" width="3.71722" height="23.7804" rx="0.885763" fill="#DAE9FF"/>
<rect x="460.025" y="360.076" width="3.71722" height="23.7804" rx="0.885763" fill="#DAE9FF"/>
<rect x="472.658" y="360.076" width="3.71722" height="23.7804" rx="0.885763" fill="#DAE9FF"/>
<rect x="485.291" y="360.076" width="3.71722" height="23.7804" rx="0.885763" fill="#DAE9FF"/>
<rect x="497.924" y="360.076" width="3.71722" height="23.7804" rx="0.885763" fill="#DAE9FF"/>
<rect x="510.557" y="360.076" width="3.71722" height="23.7804" rx="0.885763" fill="#DAE9FF"/>
<rect x="523.19" y="360.076" width="3.71722" height="23.7804" rx="0.885763" fill="#DAE9FF"/>
<rect x="366.799" y="389.205" width="193.886" height="34.4771" rx="2.97264" fill="white"/>
<mask id="mask5_2_9" style="mask-type:luminance" maskUnits="userSpaceOnUse" x="366" y="389" width="195" height="35">
<rect x="366.799" y="389.205" width="193.886" height="34.4771" rx="2.97264" fill="white"/>
</mask>
<g mask="url(#mask5_2_9)">
<path d="M366.799 408.548C351.618 380.361 561.144 394.554 556.172 389.205C551.2 383.857 391.661 382.507 391.661 382.507L359.052 383.857" fill="#DAE9FF"/>
</g>
<rect x="366.799" y="389.205" width="193.886" height="34.4771" rx="2.97264" stroke="#143C9A" stroke-width="1.5702" stroke-linecap="round" stroke-linejoin="round"/>
<rect x="379.769" y="394.554" width="3.71722" height="23.7804" rx="0.885763" fill="#DAE9FF"/>
<rect x="392.402" y="394.554" width="3.71722" height="23.7804" rx="0.885763" fill="#DAE9FF"/>
<rect x="405.035" y="394.554" width="3.71722" height="23.7804" rx="0.885763" fill="#DAE9FF"/>
<rect x="417.668" y="394.554" width="3.71722" height="23.7804" rx="0.885763" fill="#DAE9FF"/>
<rect x="430.301" y="394.554" width="3.71722" height="23.7804" rx="0.885763" fill="#DAE9FF"/>
<rect x="442.934" y="394.554" width="3.71722" height="23.7804" rx="0.885763" fill="#DAE9FF"/>
<rect x="455.567" y="394.554" width="3.71722" height="23.7804" rx="0.885763" fill="#DAE9FF"/>
<rect x="468.2" y="394.554" width="3.71722" height="23.7804" rx="0.885763" fill="#DAE9FF"/>
<rect x="480.833" y="394.554" width="3.71722" height="23.7804" rx="0.885763" fill="#DAE9FF"/>
<rect x="493.466" y="394.554" width="3.71722" height="23.7804" rx="0.885763" fill="#DAE9FF"/>
<rect x="506.099" y="394.554" width="3.71722" height="23.7804" rx="0.885763" fill="#DAE9FF"/>
<rect x="518.732" y="394.554" width="3.71722" height="23.7804" rx="0.885763" fill="#DAE9FF"/>
<rect x="531.365" y="394.554" width="3.71722" height="23.7804" rx="0.885763" fill="#DAE9FF"/>
<rect x="543.998" y="394.554" width="3.71722" height="23.7804" rx="0.885763" fill="#DAE9FF"/>
<rect x="356.025" y="423.682" width="193.886" height="34.4771" rx="2.97264" fill="white"/>
<mask id="mask6_2_9" style="mask-type:luminance" maskUnits="userSpaceOnUse" x="356" y="423" width="194" height="36">
<rect x="356.025" y="423.682" width="193.886" height="34.4771" rx="2.97264" fill="white"/>
</mask>
<g mask="url(#mask6_2_9)">
<path d="M356.024 443.025C340.844 414.838 550.37 429.031 545.398 423.682C540.426 418.334 380.887 416.984 380.887 416.984L348.278 418.334" fill="#DAE9FF"/>
</g>
<rect x="356.025" y="423.682" width="193.886" height="34.4771" rx="2.97264" stroke="#143C9A" stroke-width="1.5702" stroke-linecap="round" stroke-linejoin="round"/>
<rect x="368.994" y="429.031" width="3.71722" height="23.7804" rx="0.885763" fill="#DAE9FF"/>
<rect x="381.627" y="429.031" width="3.71722" height="23.7804" rx="0.885763" fill="#DAE9FF"/>
<rect x="394.26" y="429.031" width="3.71722" height="23.7804" rx="0.885763" fill="#DAE9FF"/>
<rect x="406.893" y="429.031" width="3.71722" height="23.7804" rx="0.885763" fill="#DAE9FF"/>
<rect x="419.526" y="429.031" width="3.71722" height="23.7804" rx="0.885763" fill="#DAE9FF"/>
<rect x="432.159" y="429.031" width="3.71722" height="23.7804" rx="0.885763" fill="#DAE9FF"/>
<rect x="444.792" y="429.031" width="3.71722" height="23.7804" rx="0.885763" fill="#DAE9FF"/>
<rect x="457.425" y="429.031" width="3.71722" height="23.7804" rx="0.885763" fill="#DAE9FF"/>
<rect x="470.058" y="429.031" width="3.71722" height="23.7804" rx="0.885763" fill="#DAE9FF"/>
<rect x="482.691" y="429.031" width="3.71722" height="23.7804" rx="0.885763" fill="#DAE9FF"/>
<rect x="495.324" y="429.031" width="3.71722" height="23.7804" rx="0.885763" fill="#DAE9FF"/>
<rect x="507.957" y="429.031" width="3.71722" height="23.7804" rx="0.885763" fill="#DAE9FF"/>
<rect x="520.59" y="429.031" width="3.71722" height="23.7804" rx="0.885763" fill="#DAE9FF"/>
<rect x="533.223" y="429.031" width="3.71722" height="23.7804" rx="0.885763" fill="#DAE9FF"/>
<rect x="364.2" y="458.159" width="193.886" height="34.4771" rx="2.97264" fill="white"/>
<mask id="mask7_2_9" style="mask-type:luminance" maskUnits="userSpaceOnUse" x="364" y="458" width="195" height="35">
<rect x="364.2" y="458.159" width="193.886" height="34.4771" rx="2.97264" fill="white"/>
</mask>
<g mask="url(#mask7_2_9)">
<path d="M364.2 477.502C349.019 449.315 558.545 463.508 553.573 458.159C548.601 452.811 389.062 451.462 389.062 451.462L356.453 452.811" fill="#DAE9FF"/>
</g>
<rect x="364.2" y="458.159" width="193.886" height="34.4771" rx="2.97264" stroke="#143C9A" stroke-width="1.5702" stroke-linecap="round" stroke-linejoin="round"/>
<rect x="377.17" y="463.508" width="3.71722" height="23.7804" rx="0.885763" fill="#DAE9FF"/>
<rect x="389.803" y="463.508" width="3.71722" height="23.7804" rx="0.885763" fill="#DAE9FF"/>
<rect x="402.436" y="463.508" width="3.71722" height="23.7804" rx="0.885763" fill="#DAE9FF"/>
<rect x="415.069" y="463.508" width="3.71722" height="23.7804" rx="0.885763" fill="#DAE9FF"/>
<rect x="427.702" y="463.508" width="3.71722" height="23.7804" rx="0.885763" fill="#DAE9FF"/>
<rect x="440.335" y="463.508" width="3.71722" height="23.7804" rx="0.885763" fill="#DAE9FF"/>
<rect x="452.968" y="463.508" width="3.71722" height="23.7804" rx="0.885763" fill="#DAE9FF"/>
<rect x="465.6" y="463.508" width="3.71722" height="23.7804" rx="0.885763" fill="#DAE9FF"/>
<rect x="478.234" y="463.508" width="3.71722" height="23.7804" rx="0.885763" fill="#DAE9FF"/>
<rect x="490.866" y="463.508" width="3.71722" height="23.7804" rx="0.885763" fill="#DAE9FF"/>
<rect x="503.5" y="463.508" width="3.71722" height="23.7804" rx="0.885763" fill="#DAE9FF"/>
<rect x="516.133" y="463.508" width="3.71722" height="23.7804" rx="0.885763" fill="#DAE9FF"/>
<rect x="528.766" y="463.508" width="3.71722" height="23.7804" rx="0.885763" fill="#DAE9FF"/>
<rect x="541.398" y="463.508" width="3.71722" height="23.7804" rx="0.885763" fill="#DAE9FF"/>
<path d="M509.241 469.307L503.733 472.988" stroke="#143C9A" stroke-width="1.5702" stroke-linecap="round" stroke-linejoin="round"/>
<path d="M427.265 375.985L424.206 378.441" stroke="#143C9A" stroke-width="1.5702" stroke-linecap="round" stroke-linejoin="round"/>
<path d="M506.203 233.55C502.737 236.444 498.8 238.722 494.563 240.285" stroke="#143C9A" stroke-width="1.5702" stroke-linecap="round" stroke-linejoin="round"/>
<path d="M430.337 388.389H400.844L352.789 492.322H382.282L430.337 388.389Z" fill="#AFD3FF" stroke="#143C9A" stroke-width="1.5702" stroke-linecap="round" stroke-linejoin="round"/>
<path d="M400.841 388.389H430.335L478.389 492.322H448.896L400.841 388.389Z" fill="#AFD3FF" stroke="#143C9A" stroke-width="1.5702" stroke-linecap="round" stroke-linejoin="round"/>
<path d="M549.853 330.917H520.36L448.985 492.322H478.478L549.853 330.917Z" fill="#AFD3FF" stroke="#143C9A" stroke-width="1.5702" stroke-linecap="round" stroke-linejoin="round"/>
<path d="M520.26 330.917H549.754L621.128 492.322H591.635L520.26 330.917Z" fill="#AFD3FF"/>
<mask id="mask8_2_9" style="mask-type:luminance" maskUnits="userSpaceOnUse" x="520" y="330" width="102" height="163">
<path fill-rule="evenodd" clip-rule="evenodd" d="M520.26 330.917H549.754L621.128 492.322H591.635L520.26 330.917Z" fill="white"/>
</mask>
<g mask="url(#mask8_2_9)">
<path d="M537.439 406.192C543.192 363.933 588.5 495.405 607.198 454.711C625.897 414.017 627.115 512.203 627.115 512.203L565.486 514.62L545.35 494.117" fill="#AFD3FF"/>
</g>
<path fill-rule="evenodd" clip-rule="evenodd" d="M520.26 330.917H549.754L621.128 492.322H591.635L520.26 330.917V330.917Z" stroke="#143C9A" stroke-width="1.5702" stroke-linecap="round" stroke-linejoin="round"/>
<path d="M689.001 266.414L660.819 262.059L591.479 492.322H620.972L689.001 266.414Z" fill="#AFD3FF" stroke="#143C9A" stroke-width="1.5702" stroke-linecap="round" stroke-linejoin="round"/>
<path d="M681.203 239.063L630.657 274.447L706.41 299.344L681.203 239.063Z" fill="#AFD3FF"/>
<mask id="mask9_2_9" style="mask-type:luminance" maskUnits="userSpaceOnUse" x="630" y="239" width="77" height="61">
<path fill-rule="evenodd" clip-rule="evenodd" d="M681.203 239.063L630.657 274.447L706.41 299.344L681.203 239.063Z" fill="white"/>
</mask>
<g mask="url(#mask9_2_9)">
<path d="M684.869 227.766L681.203 239.063C681.203 239.063 633.089 284.111 632.369 286.459C631.65 288.806 611.154 259.069 611.154 259.069L652.147 234.418" fill="#AFD3FF"/>
</g>
<path fill-rule="evenodd" clip-rule="evenodd" d="M681.203 239.063L630.657 274.447L706.41 299.344L681.203 239.063V239.063Z" stroke="#143C9A" stroke-width="1.5702" stroke-linecap="round" stroke-linejoin="round"/>
<path d="M671.868 275.353L667.187 277.78" stroke="#143C9A" stroke-width="1.5702" stroke-linecap="round" stroke-linejoin="round"/>
<path d="M502.17 416.849L496.887 421.608L502.17 416.849Z" fill="#AFD3FF"/>
<path d="M502.17 416.849L496.887 421.608" stroke="#143C9A" stroke-width="1.5702" stroke-linecap="round" stroke-linejoin="round"/>
<path d="M282.64 392.22H279.104C263.197 386.981 215.48 360.78 194.272 338.075C173.066 313.622 162.462 290.915 162.462 264.715V159.916C162.462 156.423 164.229 152.929 167.76 151.183L279.104 112.757H284.403L393.976 151.183C397.51 152.929 399.278 156.423 399.278 159.916V261.222C399.278 289.168 390.444 311.875 367.468 334.581C348.026 360.78 300.309 386.981 286.173 392.22H282.64Z" fill="#AFD3FF"/>
<mask id="mask10_2_9" style="mask-type:luminance" maskUnits="userSpaceOnUse" x="162" y="112" width="238" height="281">
<path fill-rule="evenodd" clip-rule="evenodd" d="M282.64 392.22H279.104C263.197 386.981 215.48 360.78 194.272 338.075C173.066 313.622 162.462 290.915 162.462 264.715V159.916C162.462 156.423 164.229 152.929 167.76 151.183L279.104 112.757H284.403L393.976 151.183C397.51 152.929 399.278 156.423 399.278 159.916V261.222C399.278 289.168 390.444 311.875 367.468 334.581C348.026 360.78 300.309 386.981 286.173 392.22H282.64Z" fill="white"/>
</mask>
<g mask="url(#mask10_2_9)">
<path d="M370.288 410.496C367.841 409.678 239.157 281.971 239.157 281.971L322.975 216.428L445.337 371.199L358.052 409.678" fill="url(#paint0_linear_2_9)"/>
</g>
<path fill-rule="evenodd" clip-rule="evenodd" d="M282.64 392.22H279.104C263.197 386.981 215.48 360.78 194.272 338.075C173.066 313.622 162.462 290.915 162.462 264.715V159.916C162.462 156.423 164.229 152.929 167.76 151.183L279.104 112.757H284.403L393.976 151.183C397.51 152.929 399.278 156.423 399.278 159.916V261.222C399.278 289.168 390.444 311.875 367.468 334.581C348.026 360.78 300.309 386.981 286.173 392.22H282.64Z" stroke="#143C9A" stroke-width="1.5702" stroke-linecap="round" stroke-linejoin="round"/>
<path fill-rule="evenodd" clip-rule="evenodd" d="M318.204 216.428V216.425H309.959V197.629C309.959 181.891 296.921 169.104 280.87 169.104C264.835 169.104 251.777 181.908 251.777 197.632V216.428H243.533C239.576 216.428 236.356 219.588 236.356 223.465V274.915C236.356 278.811 239.576 281.971 243.533 281.971H318.204C322.176 281.971 325.384 278.811 325.384 274.915V223.465C325.4 219.587 322.176 216.428 318.204 216.428ZM284.917 250.535V261.764C284.907 262.278 284.488 262.69 283.974 262.69H277.796C277.283 262.688 276.865 262.277 276.854 261.764V250.535C273.946 249.083 271.937 246.157 271.937 242.749C271.937 237.912 275.939 233.974 280.886 233.974C285.83 233.974 289.832 237.912 289.832 242.746C289.832 246.157 287.825 249.083 284.917 250.535ZM298.81 216.428V216.421L298.826 198.098C298.826 188.396 290.792 180.506 280.899 180.506C271.009 180.506 262.959 188.396 262.959 198.098V216.428H298.81Z" fill="white"/>
<mask id="mask11_2_9" style="mask-type:luminance" maskUnits="userSpaceOnUse" x="236" y="169" width="90" height="113">
<path fill-rule="evenodd" clip-rule="evenodd" d="M318.204 216.428V216.425H309.959V197.629C309.959 181.891 296.921 169.104 280.87 169.104C264.835 169.104 251.777 181.908 251.777 197.632V216.428H243.533C239.576 216.428 236.356 219.588 236.356 223.465V274.915C236.356 278.811 239.576 281.971 243.533 281.971H318.204C322.176 281.971 325.384 278.811 325.384 274.915V223.465C325.4 219.587 322.176 216.428 318.204 216.428ZM284.917 250.535V261.764C284.907 262.278 284.488 262.69 283.974 262.69H277.796C277.283 262.688 276.865 262.277 276.854 261.764V250.535C273.946 249.083 271.937 246.157 271.937 242.749C271.937 237.912 275.939 233.974 280.886 233.974C285.83 233.974 289.832 237.912 289.832 242.746C289.832 246.157 287.825 249.083 284.917 250.535L284.917 250.535ZM298.81 216.421V216.428H262.959V198.098C262.959 188.396 271.009 180.506 280.899 180.506C290.792 180.506 298.826 188.396 298.826 198.098L298.81 216.421Z" fill="white"/>
</mask>
<g mask="url(#mask11_2_9)">
<path d="M322.975 216.428C321.14 290.148 239.157 281.971 239.157 281.971C239.157 281.971 231.815 289.739 234.263 290.967C236.71 292.195 338.474 294.242 338.474 294.242L331.132 210.735" fill="white"/>
<path d="M322.975 216.428C321.14 290.148 239.157 281.971 239.157 281.971C239.157 281.971 231.815 289.739 234.263 290.967C236.71 292.195 338.474 294.242 338.474 294.242L331.132 210.735" stroke="#143C9A" stroke-width="1.5702" stroke-linecap="round" stroke-linejoin="round"/>
</g>
<path d="M318.204 216.428H317.419C317.419 216.862 317.77 217.213 318.204 217.213V216.428ZM318.204 216.425H318.989C318.989 215.991 318.637 215.64 318.204 215.64V216.425ZM309.959 216.425H309.174C309.174 216.859 309.526 217.21 309.959 217.21V216.425ZM251.777 216.428V217.213C252.211 217.213 252.562 216.862 252.562 216.428H251.777ZM325.384 223.465L324.599 223.461V223.465H325.384ZM284.917 250.535H285.702C285.702 250.15 285.424 249.822 285.044 249.76C284.665 249.698 284.296 249.92 284.173 250.284L284.917 250.535ZM284.917 261.764L285.702 261.78C285.702 261.775 285.702 261.77 285.702 261.764H284.917ZM283.974 262.69V263.475H283.974L283.974 262.69ZM277.796 262.69L277.794 263.475H277.796V262.69ZM276.854 261.764H276.069C276.069 261.77 276.069 261.775 276.07 261.78L276.854 261.764ZM276.854 250.535H277.64C277.64 250.237 277.471 249.965 277.205 249.833L276.854 250.535ZM284.917 250.535L284.173 250.284C284.072 250.585 284.162 250.918 284.402 251.127C284.641 251.336 284.983 251.38 285.268 251.237L284.917 250.535ZM298.81 216.421L298.025 216.421V216.421H298.81ZM298.81 216.428V217.213C299.243 217.213 299.595 216.862 299.595 216.428H298.81ZM262.959 216.428H262.174C262.174 216.862 262.526 217.213 262.959 217.213V216.428ZM298.826 198.098L299.611 198.099V198.098H298.826ZM318.989 216.428V216.425H317.419V216.428H318.989ZM318.204 215.64H309.959V217.21H318.204V215.64ZM310.744 216.425V197.629H309.174V216.425H310.744ZM310.744 197.629C310.744 181.443 297.34 168.319 280.87 168.319V169.89C296.502 169.89 309.174 182.339 309.174 197.629H310.744ZM280.87 168.319C264.416 168.319 250.992 181.46 250.992 197.632H252.562C252.562 182.356 265.254 169.89 280.87 169.89V168.319ZM250.992 197.632V216.428H252.562V197.632H250.992ZM251.777 215.643H243.533V217.213H251.777V215.643ZM243.533 215.643C239.157 215.643 235.571 219.14 235.571 223.465H237.141C237.141 220.036 239.995 217.213 243.533 217.213V215.643ZM235.571 223.465V274.915H237.141V223.465H235.571ZM235.571 274.915C235.571 279.258 239.155 282.756 243.533 282.756V281.186C239.996 281.186 237.141 278.365 237.141 274.915H235.571ZM243.533 282.756H318.204V281.186H243.533V282.756ZM318.204 282.756C322.598 282.756 326.169 279.257 326.169 274.915H324.599C324.599 278.365 321.755 281.186 318.204 281.186V282.756ZM326.169 274.915V223.465H324.599V274.915H326.169ZM326.169 223.468C326.187 219.138 322.593 215.643 318.204 215.643V217.213C321.76 217.213 324.613 220.037 324.599 223.461L326.169 223.468ZM284.132 250.535V261.764H285.702V250.535H284.132ZM284.132 261.749C284.131 261.836 284.06 261.905 283.974 261.905L283.974 263.475C284.915 263.475 285.684 262.721 285.702 261.78L284.132 261.749ZM283.974 261.905H277.796V263.475H283.974V261.905ZM277.798 261.905C277.712 261.904 277.641 261.835 277.639 261.749L276.07 261.78C276.088 262.72 276.854 263.472 277.794 263.475L277.798 261.905ZM277.64 261.764V250.535H276.069V261.764H277.64ZM277.205 249.833C274.541 248.502 272.722 245.835 272.722 242.749H271.152C271.152 246.479 273.352 249.663 276.504 251.237L277.205 249.833ZM272.722 242.749C272.722 238.359 276.359 234.759 280.886 234.759V233.189C275.519 233.189 271.152 237.465 271.152 242.749H272.722ZM280.886 234.759C285.41 234.759 289.047 238.359 289.047 242.746H290.617C290.617 237.465 286.25 233.189 280.886 233.189V234.759ZM289.047 242.746C289.047 245.835 287.23 248.502 284.566 249.833L285.268 251.237C288.42 249.663 290.617 246.478 290.617 242.746H289.047ZM285.661 250.786L285.661 250.786L284.173 250.284L284.173 250.284L285.661 250.786ZM298.025 216.421V216.428H299.595V216.421H298.025ZM298.81 215.643H262.959V217.213H298.81V215.643ZM263.745 216.428V198.098H262.174V216.428H263.745ZM263.745 198.098C263.745 188.844 271.427 181.291 280.899 181.291V179.721C270.59 179.721 262.174 187.948 262.174 198.098H263.745ZM280.899 181.291C290.372 181.291 298.041 188.843 298.041 198.098H299.611C299.611 187.949 291.212 179.721 280.899 179.721V181.291ZM298.041 198.098L298.025 216.421L299.595 216.422L299.611 198.099L298.041 198.098Z" fill="#143C9A"/>
<path d="M282.943 420.313H278.802C260.17 414.176 204.279 383.488 179.437 356.893C154.599 328.251 142.178 301.654 142.178 270.965V148.214C142.178 144.123 144.249 140.031 148.385 137.986L278.802 92.9772H285.008L413.351 137.986C417.491 140.031 419.562 144.123 419.562 148.214V266.875C419.562 299.608 409.215 326.204 382.303 352.8C359.53 383.488 303.639 414.176 287.082 420.313H282.943Z" fill="white"/>
<mask id="mask12_2_9" style="mask-type:luminance" maskUnits="userSpaceOnUse" x="142" y="92" width="278" height="329">
<path fill-rule="evenodd" clip-rule="evenodd" d="M282.943 420.313H278.802C260.17 414.176 204.279 383.488 179.437 356.893C154.599 328.251 142.178 301.654 142.178 270.965V148.214C142.178 144.123 144.249 140.031 148.385 137.986L278.802 92.9772H285.008L413.351 137.986C417.491 140.031 419.562 144.123 419.562 148.214V266.875C419.562 299.608 409.215 326.204 382.303 352.8C359.53 383.488 303.639 414.176 287.082 420.313H282.943Z" fill="white"/>
</mask>
<g mask="url(#mask12_2_9)">
<path d="M387.011 71.2092L122.71 459.272L363.762 555.059L465.323 184.663L419.562 83.4913L389.458 82.2633" fill="#DAE9FF"/>
</g>
<path fill-rule="evenodd" clip-rule="evenodd" d="M282.943 420.313H278.802C260.17 414.176 204.279 383.488 179.437 356.893C154.599 328.251 142.178 301.654 142.178 270.965V148.214C142.178 144.123 144.249 140.031 148.385 137.986L278.802 92.9772H285.008L413.351 137.986C417.491 140.031 419.562 144.123 419.562 148.214V266.875C419.562 299.608 409.215 326.204 382.303 352.8C359.53 383.488 303.639 414.176 287.082 420.313H282.943Z" stroke="#143C9A" stroke-width="1.5702" stroke-linecap="round" stroke-linejoin="round"/>
<path d="M282.64 396.377H279.104C263.197 391.137 215.48 364.937 194.272 342.232C173.066 317.778 162.462 295.072 162.462 268.871V164.072C162.462 160.579 164.229 157.086 167.761 155.34L279.104 116.913H284.403L393.976 155.34C397.51 157.086 399.278 160.579 399.278 164.072V265.379C399.278 293.325 390.444 316.031 367.468 338.738C348.026 364.937 300.309 391.137 286.174 396.377H282.64Z" fill="#DAE9FF"/>
<mask id="mask13_2_9" style="mask-type:luminance" maskUnits="userSpaceOnUse" x="162" y="116" width="238" height="281">
<path fill-rule="evenodd" clip-rule="evenodd" d="M282.64 396.377H279.104C263.197 391.137 215.48 364.937 194.272 342.232C173.066 317.778 162.462 295.072 162.462 268.871V164.072C162.462 160.579 164.229 157.086 167.761 155.34L279.104 116.913H284.403L393.976 155.34C397.51 157.086 399.278 160.579 399.278 164.072V265.379C399.278 293.325 390.444 316.031 367.468 338.738C348.026 364.937 300.309 391.137 286.174 396.377H282.64Z" fill="white"/>
</mask>
<g mask="url(#mask13_2_9)">
<path d="M370.288 414.653C367.841 413.834 238.284 283.87 238.284 283.87L310.383 265.143L322.975 220.585L481.924 398.455L358.052 413.834" fill="#DAE9FF"/>
</g>
<path fill-rule="evenodd" clip-rule="evenodd" d="M282.64 396.377H279.104C263.197 391.137 215.48 364.937 194.272 342.232C173.066 317.778 162.462 295.072 162.462 268.871V164.072C162.462 160.579 164.229 157.086 167.761 155.34L279.104 116.913H284.403L393.976 155.34C397.51 157.086 399.278 160.579 399.278 164.072V265.379C399.278 293.325 390.444 316.031 367.468 338.738C348.026 364.937 300.309 391.137 286.173 396.377H282.64Z" stroke="#143C9A" stroke-width="1.5702" stroke-linecap="round" stroke-linejoin="round"/>
<path fill-rule="evenodd" clip-rule="evenodd" d="M318.204 220.585V220.582H309.959V201.785C309.959 186.047 296.921 173.261 280.87 173.261C264.835 173.261 251.777 186.064 251.777 201.789V220.585H243.533C239.576 220.585 236.356 223.744 236.356 227.621V279.071C236.356 282.968 239.576 286.128 243.533 286.128H318.204C322.176 286.128 325.384 282.968 325.384 279.071V227.621C325.4 223.744 322.176 220.585 318.204 220.585ZM284.917 254.692V265.921C284.907 266.435 284.488 266.846 283.974 266.846H277.796C277.283 266.845 276.865 266.434 276.854 265.921V254.691C273.946 253.239 271.937 250.313 271.937 246.906C271.937 242.068 275.939 238.13 280.886 238.13C285.83 238.13 289.832 242.068 289.832 246.902C289.832 250.313 287.825 253.239 284.917 254.692ZM298.81 220.585V220.578L298.826 202.255C298.826 192.553 290.792 184.663 280.899 184.663C271.009 184.663 262.959 192.553 262.959 202.255V220.585H298.81Z" fill="white"/>
<path d="M318.204 220.582H318.989C318.989 220.148 318.637 219.797 318.204 219.797V220.582ZM318.204 220.585H317.419C317.419 221.018 317.77 221.37 318.204 221.37V220.585ZM309.959 220.582H309.174C309.174 221.015 309.526 221.367 309.959 221.367V220.582ZM251.777 220.585V221.37C252.211 221.37 252.562 221.018 252.562 220.585H251.777ZM325.384 227.621L324.599 227.618V227.621H325.384ZM284.917 265.921L285.702 265.936C285.702 265.931 285.702 265.926 285.702 265.921H284.917ZM284.917 254.692L284.566 253.989C284.3 254.122 284.132 254.394 284.132 254.692H284.917ZM283.974 266.846V267.631H283.974L283.974 266.846ZM277.796 266.846L277.794 267.631H277.796V266.846ZM276.854 265.921H276.069C276.069 265.926 276.069 265.931 276.07 265.937L276.854 265.921ZM276.854 254.691H277.64C277.64 254.394 277.471 254.122 277.205 253.989L276.854 254.691ZM298.81 220.578L298.025 220.577V220.578H298.81ZM298.81 220.585V221.37C299.243 221.37 299.595 221.018 299.595 220.585H298.81ZM298.826 202.255L299.611 202.255V202.255H298.826ZM262.959 220.585H262.174C262.174 221.018 262.526 221.37 262.959 221.37V220.585ZM317.419 220.582V220.585H318.989V220.582H317.419ZM309.959 221.367H318.204V219.797H309.959V221.367ZM309.174 201.785V220.582H310.744V201.785H309.174ZM280.87 174.046C296.502 174.046 309.174 186.495 309.174 201.785H310.744C310.744 185.599 297.34 172.476 280.87 172.476V174.046ZM252.562 201.789C252.562 186.512 265.254 174.046 280.87 174.046V172.476C264.416 172.476 250.992 185.616 250.992 201.789H252.562ZM252.562 220.585V201.789H250.992V220.585H252.562ZM243.533 221.37H251.777V219.8H243.533V221.37ZM237.141 227.621C237.141 224.192 239.995 221.37 243.533 221.37V219.8C239.157 219.8 235.571 223.296 235.571 227.621H237.141ZM237.141 279.071V227.621H235.571V279.071H237.141ZM243.533 285.343C239.996 285.343 237.141 282.521 237.141 279.071H235.571C235.571 283.414 239.155 286.913 243.533 286.913V285.343ZM318.204 285.343H243.533V286.913H318.204V285.343ZM324.599 279.071C324.599 282.522 321.755 285.343 318.204 285.343V286.913C322.598 286.913 326.169 283.414 326.169 279.071H324.599ZM324.599 227.621V279.071H326.169V227.621H324.599ZM318.204 221.37C321.76 221.37 324.613 224.194 324.599 227.618L326.169 227.624C326.187 223.294 322.593 219.8 318.204 219.8V221.37ZM285.702 265.921V254.692H284.132V265.921H285.702ZM283.974 267.631C284.915 267.631 285.684 266.878 285.702 265.936L284.132 265.906C284.131 265.992 284.06 266.061 283.974 266.061L283.974 267.631ZM277.796 267.631H283.974V266.061H277.796V267.631ZM276.07 265.937C276.088 266.876 276.854 267.629 277.794 267.631L277.798 266.061C277.712 266.061 277.641 265.992 277.639 265.906L276.07 265.937ZM276.069 254.691V265.921H277.64V254.691H276.069ZM271.152 246.906C271.152 250.635 273.352 253.82 276.504 255.394L277.205 253.989C274.541 252.658 272.722 249.991 272.722 246.906H271.152ZM280.886 237.345C275.519 237.345 271.152 241.621 271.152 246.906H272.722C272.722 242.516 276.359 238.916 280.886 238.916V237.345ZM290.617 246.902C290.617 241.621 286.25 237.345 280.886 237.345V238.916C285.41 238.916 289.047 242.516 289.047 246.902H290.617ZM285.268 255.394C288.42 253.82 290.617 250.635 290.617 246.902H289.047C289.047 249.992 287.23 252.659 284.566 253.989L285.268 255.394ZM298.025 220.578V220.585H299.595V220.578H298.025ZM298.041 202.254L298.025 220.577L299.595 220.579L299.611 202.255L298.041 202.254ZM280.899 185.448C290.372 185.448 298.041 193 298.041 202.255H299.611C299.611 192.105 291.212 183.877 280.899 183.877V185.448ZM263.745 202.255C263.745 193.001 271.427 185.448 280.899 185.448V183.877C270.59 183.877 262.174 192.105 262.174 202.255H263.745ZM263.745 220.585V202.255H262.174V220.585H263.745ZM298.81 219.8H262.959V221.37H298.81V219.8Z" fill="#143C9A"/>
<path d="M212.494 171.812C211.131 174.881 209.193 177.66 206.784 179.999" stroke="#143C9A" stroke-width="1.5702" stroke-linecap="round" stroke-linejoin="round"/>
<path d="M323.22 345.193C318.304 351.032 312.318 355.879 305.584 359.472" stroke="#143C9A" stroke-width="1.5702" stroke-linecap="round" stroke-linejoin="round"/>
<path d="M295.926 464.326H365.497C365.497 464.326 336.223 320.476 321.842 318.672C287.374 314.348 295.926 464.326 295.926 464.326Z" fill="white" stroke="#143C9A" stroke-width="1.5702" stroke-linecap="round" stroke-linejoin="round"/>
<path d="M319.644 365.351L314.028 484.613L117.995 491.511L157.353 365.793L163.279 342.528C163.279 342.528 186.449 332.708 239.342 322.755C299.892 311.36 321.842 318.672 321.842 318.672" fill="white"/>
<mask id="mask14_2_9" style="mask-type:luminance" maskUnits="userSpaceOnUse" x="117" y="316" width="205" height="176">
<path fill-rule="evenodd" clip-rule="evenodd" d="M319.644 365.351L314.028 484.613L117.995 491.511L157.353 365.793L163.279 342.528C163.279 342.528 186.449 332.708 239.342 322.755C299.892 311.36 321.842 318.672 321.842 318.672" fill="white"/>
</mask>
<g mask="url(#mask14_2_9)">
<ellipse cx="232.068" cy="323.575" rx="26.5016" ry="49.0279" transform="rotate(-73.9072 232.068 323.575)" fill="#DAE9FF" stroke="#143C9A" stroke-width="1.5702" stroke-linecap="round" stroke-linejoin="round"/>
<ellipse cx="232.869" cy="320.72" rx="23.3503" ry="42.9292" transform="rotate(-76.2477 232.869 320.72)" fill="white" stroke="#143C9A" stroke-width="1.5702" stroke-linecap="round" stroke-linejoin="round"/>
<path d="M255.543 381.8L229.804 436.891L290.212 431.717L255.543 381.8Z" fill="#DAE9FF" stroke="#143C9A" stroke-width="1.5702" stroke-linecap="round" stroke-linejoin="round"/>
</g>
<path d="M319.644 365.351L314.028 484.613L117.995 491.511L157.353 365.793L163.279 342.528C163.279 342.528 186.449 332.708 239.342 322.755C299.892 311.36 321.842 318.672 321.842 318.672" stroke="#143C9A" stroke-width="1.5702" stroke-linecap="round" stroke-linejoin="round"/>
<ellipse cx="188.144" cy="239.088" rx="17.1424" ry="17.2044" fill="#AFD3FF" stroke="#143C9A" stroke-width="1.5702" stroke-linecap="round" stroke-linejoin="round"/>
<path d="M285.281 205.742C264.063 198.092 259.737 216.699 259.737 216.699C279.101 220.628 278.689 211.117 285.281 205.742Z" fill="white" stroke="#143C9A" stroke-width="1.5702" stroke-linecap="round" stroke-linejoin="round"/>
<path d="M284.726 226.603C276.346 205.596 259.606 214.697 259.606 214.697C269.529 231.842 276.345 225.221 284.726 226.603Z" fill="white" stroke="#143C9A" stroke-width="1.5702" stroke-linecap="round" stroke-linejoin="round"/>
<path d="M255.076 323.348L252.255 279.938H215.175V329.808" fill="white"/>
<mask id="mask15_2_9" style="mask-type:luminance" maskUnits="userSpaceOnUse" x="215" y="279" width="41" height="51">
<path fill-rule="evenodd" clip-rule="evenodd" d="M255.076 323.348L252.255 279.938H215.175V329.808" fill="white"/>
</mask>
<g mask="url(#mask15_2_9)">
<path d="M267.172 325.222C238.057 321.088 246.334 305.099 233.818 294.073C221.302 283.046 264.7 292.143 264.7 292.143L276.511 319.709L270.743 326.049" fill="#DAE9FF"/>
</g>
<path d="M255.076 323.348L252.255 279.938H215.175V329.808" stroke="#143C9A" stroke-width="1.5702" stroke-linecap="round" stroke-linejoin="round"/>
<ellipse cx="259.671" cy="248.926" rx="22.2482" ry="22.3287" fill="#AFD3FF" stroke="#143C9A" stroke-width="1.5702" stroke-linecap="round" stroke-linejoin="round"/>
<path d="M218.883 282.005C186.081 237.114 267.5 237.762 267.5 237.762C299.888 308.652 269.459 326.619 237.422 301.579" fill="white"/>
<mask id="mask16_2_9" style="mask-type:luminance" maskUnits="userSpaceOnUse" x="211" y="237" width="71" height="76">
<path fill-rule="evenodd" clip-rule="evenodd" d="M218.883 282.005C186.081 237.114 267.5 237.762 267.5 237.762C299.888 308.652 269.459 326.619 237.422 301.579" fill="white"/>
</mask>
<g mask="url(#mask16_2_9)">
<ellipse opacity="0.27" cx="287.152" cy="279.226" rx="8.22017" ry="6.57948" transform="rotate(-13.4326 287.152 279.226)" fill="#DAE9FF"/>
<path d="M264.139 292.944C264.616 294.835 266.363 296.126 268.311 296.028L264.139 292.944Z" fill="white"/>
<path d="M264.139 292.944C264.616 294.835 266.363 296.126 268.311 296.028" stroke="#143C9A" stroke-width="1.5702" stroke-linecap="round" stroke-linejoin="round"/>
</g>
<path d="M218.883 282.005C186.081 237.114 267.5 237.762 267.5 237.762C299.888 308.652 269.459 326.619 237.422 301.579" stroke="#143C9A" stroke-width="1.5702" stroke-linecap="round" stroke-linejoin="round"/>
<path d="M263.38 218.327C297.988 271.668 225.063 270.841 225.063 270.841L237.011 225.77L259.671 214.399" fill="#AFD3FF"/>
<path d="M263.38 218.327C297.988 271.668 225.063 270.841 225.063 270.841L237.011 225.77L259.671 214.399" stroke="#143C9A" stroke-width="1.5702" stroke-linecap="round" stroke-linejoin="round"/>
<ellipse cx="205.287" cy="208.817" rx="44.4965" ry="44.6573" fill="#AFD3FF" stroke="#143C9A" stroke-width="1.5702" stroke-linecap="round" stroke-linejoin="round"/>
<path d="M249.783 208.817L190.043 253.474C189.571 281.592 211.095 281.592 216.411 298.959C216.411 298.959 267.088 245.204 262.418 212.952C262.418 212.952 258.573 207.576 249.783 208.817Z" fill="white"/>
<mask id="mask17_2_9" style="mask-type:luminance" maskUnits="userSpaceOnUse" x="190" y="208" width="73" height="91">
<path fill-rule="evenodd" clip-rule="evenodd" d="M249.783 208.817L190.043 253.474C189.571 281.592 211.095 281.592 216.411 298.959C216.411 298.959 267.088 245.204 262.418 212.952C262.418 212.952 258.573 207.576 249.783 208.817Z" fill="white"/>
</mask>
<g mask="url(#mask17_2_9)">
<path d="M156.858 271.255C234.667 261.517 259.606 196.625 259.606 196.625L262.722 197.175C262.722 197.175 238.776 266.649 178.776 287.547" fill="#DAE9FF"/>
<path d="M156.858 271.255C234.667 261.517 259.606 196.625 259.606 196.625L262.722 197.175C262.722 197.175 238.776 266.649 178.776 287.547" stroke="#143C9A" stroke-width="1.5702" stroke-linecap="round" stroke-linejoin="round"/>
</g>
<path fill-rule="evenodd" clip-rule="evenodd" d="M249.783 208.817L190.043 253.474C189.571 281.592 211.095 281.592 216.411 298.959C216.411 298.959 267.088 245.204 262.418 212.952C262.418 212.952 258.573 207.576 249.783 208.817Z" stroke="#143C9A" stroke-width="1.5702" stroke-linecap="round" stroke-linejoin="round"/>
<path d="M309.694 316.663C309.694 316.663 300.748 289.471 299.61 287.037C298.472 284.602 271.203 281.112 269.318 281.543C267.432 281.973 265.518 289.677 270.499 291.883C270.499 291.883 264.293 299.652 271.801 303.278C271.801 303.278 270.759 311.095 277.22 311.206L287.37 315.063L313.302 465.234L365.497 459.228L309.694 316.663Z" fill="white" stroke="#143C9A" stroke-width="1.5702" stroke-linecap="round" stroke-linejoin="round"/>
<path d="M225.092 504.023H377.015L413.705 413.041C415.265 409.174 412.984 406.038 408.612 406.038H272.524C268.151 406.038 263.342 409.174 261.782 413.041L225.092 504.023Z" fill="#DAE9FF" stroke="#143C9A" stroke-width="1.5702" stroke-linecap="round" stroke-linejoin="round"/>
<path d="M161.105 494.936H378.31H161.105Z" fill="#DAE9FF"/>
<path d="M161.105 494.936H378.31" stroke="#143C9A" stroke-width="1.5702" stroke-linecap="round" stroke-linejoin="round"/>
<path d="M164.525 496.889H381.73L378.061 504.023H152.946L153.794 502.374C155.352 499.345 160.157 496.889 164.525 496.889Z" fill="#DAE9FF" stroke="#143C9A" stroke-width="1.5702" stroke-linecap="round" stroke-linejoin="round"/>
<path d="M228.512 504.023H380.435L417.125 413.041C418.684 409.174 416.404 406.038 412.031 406.038H275.943C271.571 406.038 266.762 409.174 265.202 413.041L228.512 504.023Z" fill="#DAE9FF"/>
<mask id="mask18_2_9" style="mask-type:luminance" maskUnits="userSpaceOnUse" x="228" y="406" width="190" height="99">
<path fill-rule="evenodd" clip-rule="evenodd" d="M228.512 504.023H380.435L417.125 413.041C418.684 409.174 416.404 406.038 412.031 406.038H275.943C271.571 406.038 266.762 409.174 265.202 413.041L228.512 504.023Z" fill="white"/>
</mask>
<g mask="url(#mask18_2_9)">
<path d="M374.033 382.963C445.631 424.758 375.155 516.425 285.281 507.614C195.407 498.802 439.056 547.209 439.056 547.209L458.782 435.756L433.942 399.828" fill="#DAE9FF"/>
</g>
<path fill-rule="evenodd" clip-rule="evenodd" d="M228.512 504.023H380.435L417.125 413.041C418.684 409.174 416.404 406.038 412.031 406.038H275.943C271.571 406.038 266.762 409.174 265.202 413.041L228.512 504.023Z" stroke="#143C9A" stroke-width="1.5702" stroke-linecap="round" stroke-linejoin="round"/>
<ellipse cx="328.072" cy="451.881" rx="15.4215" ry="10.3782" transform="rotate(-30.6715 328.072 451.881)" fill="#DAE9FF" stroke="#143C9A" stroke-width="1.5702" stroke-linecap="round" stroke-linejoin="round"/>
<path d="M166.814 341.486C144.864 341.486 90.046 484.112 90.046 484.112L153.927 492.526C153.927 492.526 184.979 415.169 185.358 410.231" fill="white"/>
<mask id="mask19_2_9" style="mask-type:luminance" maskUnits="userSpaceOnUse" x="90" y="341" width="96" height="152">
<path fill-rule="evenodd" clip-rule="evenodd" d="M166.814 341.486C144.864 341.486 90.046 484.112 90.046 484.112L153.927 492.526C153.927 492.526 184.979 415.169 185.358 410.231" fill="white"/>
</mask>
<g mask="url(#mask19_2_9)">
<path d="M72.1085 451.881C126.173 437.861 171.002 472.323 171.002 472.323L131.287 504.023" fill="white"/>
<path d="M72.1085 451.881C126.173 437.861 171.002 472.323 171.002 472.323L131.287 504.023" stroke="#143C9A" stroke-width="1.5702" stroke-linecap="round" stroke-linejoin="round"/>
</g>
<path d="M166.814 341.486C144.864 341.486 90.046 484.112 90.046 484.112L153.927 492.526C153.927 492.526 184.979 415.169 185.358 410.231" stroke="#143C9A" stroke-width="1.5702" stroke-linecap="round" stroke-linejoin="round"/>
<path d="M95.2068 472.311C93.3407 474.693 91.8584 477.351 90.8137 480.191C86.5326 491.689 94.039 504.458 104.74 503.88L198.686 498.802H205.595C205.595 498.802 215.809 503.727 222.418 498.802C222.418 498.802 231.731 503.375 235.035 495.636C235.035 495.636 240.743 495.636 242.245 489.656L244.202 495.324C244.202 495.324 248.854 493.526 249.455 489.656C250.055 485.787 244.056 471.012 244.202 469.253C244.348 467.495 231.13 453.424 229.928 455.182C228.726 456.941 200.488 479.807 200.488 479.807L138.922 467.904" fill="white"/>
<path d="M95.2068 472.311C93.3407 474.693 91.8584 477.351 90.8137 480.191V480.191C86.5326 491.689 94.039 504.458 104.74 503.88L198.686 498.802H205.595C205.595 498.802 215.809 503.727 222.418 498.802C222.418 498.802 231.731 503.375 235.035 495.636C235.035 495.636 240.743 495.636 242.245 489.656L244.202 495.324C244.202 495.324 248.854 493.526 249.455 489.656C250.055 485.787 244.056 471.012 244.202 469.253C244.348 467.495 231.13 453.424 229.928 455.182C228.726 456.941 200.488 479.807 200.488 479.807L138.922 467.904" stroke="#143C9A" stroke-width="1.5702" stroke-linecap="round" stroke-linejoin="round"/>
<path d="M605.334 200.988C605.346 188.111 597.086 176.681 584.856 172.651C583.212 157.747 570.627 146.154 555.339 146.154C546.387 146.15 537.914 150.198 532.292 157.164C525.944 154.433 518.753 154.429 512.401 157.151C506.05 159.873 501.094 165.083 498.692 171.562C484.55 173.848 473.746 186.15 473.746 200.988C473.746 217.453 487.045 230.8 503.45 230.8V230.829H577.741V230.717C593.16 229.629 605.334 216.74 605.334 200.988Z" fill="#DAE9FF" stroke="#143C9A" stroke-width="1.5702" stroke-linecap="round" stroke-linejoin="round"/>
</g>
<path d="M377.317 182.121C373.659 185.336 369.596 188.059 365.232 190.221" stroke="#143C9A" stroke-width="1.5702" stroke-linecap="round" stroke-linejoin="round"/>
<path d="M225.949 380.725L222.363 384.311" stroke="#143C9A" stroke-width="1.5702" stroke-linecap="round" stroke-linejoin="round"/>
<path d="M547.378 192.521L532.586 208.658" stroke="#143C9A" stroke-width="1.5702" stroke-linecap="round" stroke-linejoin="round"/>
<path d="M361.942 437.4L355.182 444.087" stroke="#143C9A" stroke-width="1.5702" stroke-linecap="round" stroke-linejoin="round"/>
<path d="M207.059 193.789L203.027 199.17" stroke="#143C9A" stroke-width="1.5702" stroke-linecap="round" stroke-linejoin="round"/>
<defs>
<linearGradient id="paint0_linear_2_9" x1="239.157" y1="410.496" x2="445.337" y2="410.496" gradientUnits="userSpaceOnUse">
<stop offset="0.1011" stop-color="#FF4F37"/>
<stop offset="0.8855" stop-color="#FF8646"/>
</linearGradient>
</defs>
</svg>
